<?xml version="1.0" encoding="utf-8" standalone="no"?>
<!DOCTYPE svg PUBLIC "-//W3C//DTD SVG 1.1//EN"
  "http://www.w3.org/Graphics/SVG/1.1/DTD/svg11.dtd">
<svg height="310.86825pt" version="1.1" viewBox="0 0 408.10125 310.86825" width="408.10125pt" xmlns="http://www.w3.org/2000/svg" xmlns:xlink="http://www.w3.org/1999/xlink">
 <metadata>
  <rdf:RDF xmlns:cc="http://creativecommons.org/ns#" xmlns:dc="http://purl.org/dc/elements/1.1/" xmlns:rdf="http://www.w3.org/1999/02/22-rdf-syntax-ns#">
   <cc:Work>
    <dc:type rdf:resource="http://purl.org/dc/dcmitype/StillImage"/>
    <dc:date>2021-07-04T01:18:39.545904</dc:date>
    <dc:format>image/svg+xml</dc:format>
    <dc:creator>
     <cc:Agent>
      <dc:title>Matplotlib v3.4.2, https://matplotlib.org/</dc:title>
     </cc:Agent>
    </dc:creator>
   </cc:Work>
  </rdf:RDF>
 </metadata>
 <defs>
  <style type="text/css">*{stroke-linecap:butt;stroke-linejoin:round;}</style>
 </defs>
 <g id="figure_1">
  <g id="patch_1">
   <path d="M 0 310.86825 
L 408.10125 310.86825 
L 408.10125 0 
L 0 0 
z
" style="fill:#ffffff;"/>
  </g>
  <g id="axes_1">
   <g id="patch_2">
    <path d="M 43.78125 273.312 
L 400.90125 273.312 
L 400.90125 7.2 
L 43.78125 7.2 
z
" style="fill:#ffffff;"/>
   </g>
   <g id="patch_3">
    <path clip-path="url(#p76be8f1bd9)" d="M 60.743255 273.312 
L 62.361414 273.312 
L 62.361414 268.942345 
L 60.743255 268.942345 
z
" style="fill:#1f77b4;"/>
   </g>
   <g id="patch_4">
    <path clip-path="url(#p76be8f1bd9)" d="M 62.361414 273.312 
L 63.979573 273.312 
L 63.979573 266.029241 
L 62.361414 266.029241 
z
" style="fill:#1f77b4;"/>
   </g>
   <g id="patch_5">
    <path clip-path="url(#p76be8f1bd9)" d="M 63.979573 273.312 
L 65.597732 273.312 
L 65.597732 266.029241 
L 63.979573 266.029241 
z
" style="fill:#1f77b4;"/>
   </g>
   <g id="patch_6">
    <path clip-path="url(#p76be8f1bd9)" d="M 65.597732 273.312 
L 67.215891 273.312 
L 67.215891 252.920276 
L 65.597732 252.920276 
z
" style="fill:#1f77b4;"/>
   </g>
   <g id="patch_7">
    <path clip-path="url(#p76be8f1bd9)" d="M 67.215891 273.312 
L 68.834051 273.312 
L 68.834051 253.648552 
L 67.215891 253.648552 
z
" style="fill:#1f77b4;"/>
   </g>
   <g id="patch_8">
    <path clip-path="url(#p76be8f1bd9)" d="M 68.834051 273.312 
L 70.45221 273.312 
L 70.45221 256.561655 
L 68.834051 256.561655 
z
" style="fill:#1f77b4;"/>
   </g>
   <g id="patch_9">
    <path clip-path="url(#p76be8f1bd9)" d="M 70.45221 273.312 
L 72.070369 273.312 
L 72.070369 248.550621 
L 70.45221 248.550621 
z
" style="fill:#1f77b4;"/>
   </g>
   <g id="patch_10">
    <path clip-path="url(#p76be8f1bd9)" d="M 72.070369 273.312 
L 73.688528 273.312 
L 73.688528 247.822345 
L 72.070369 247.822345 
z
" style="fill:#1f77b4;"/>
   </g>
   <g id="patch_11">
    <path clip-path="url(#p76be8f1bd9)" d="M 73.688528 273.312 
L 75.306687 273.312 
L 75.306687 247.822345 
L 73.688528 247.822345 
z
" style="fill:#1f77b4;"/>
   </g>
   <g id="patch_12">
    <path clip-path="url(#p76be8f1bd9)" d="M 75.306687 273.312 
L 76.924846 273.312 
L 76.924846 242.724414 
L 75.306687 242.724414 
z
" style="fill:#1f77b4;"/>
   </g>
   <g id="patch_13">
    <path clip-path="url(#p76be8f1bd9)" d="M 76.924846 273.312 
L 78.543006 273.312 
L 78.543006 223.789241 
L 76.924846 223.789241 
z
" style="fill:#1f77b4;"/>
   </g>
   <g id="patch_14">
    <path clip-path="url(#p76be8f1bd9)" d="M 78.543006 273.312 
L 80.161165 273.312 
L 80.161165 228.158897 
L 78.543006 228.158897 
z
" style="fill:#1f77b4;"/>
   </g>
   <g id="patch_15">
    <path clip-path="url(#p76be8f1bd9)" d="M 80.161165 273.312 
L 81.779324 273.312 
L 81.779324 228.158897 
L 80.161165 228.158897 
z
" style="fill:#1f77b4;"/>
   </g>
   <g id="patch_16">
    <path clip-path="url(#p76be8f1bd9)" d="M 81.779324 273.312 
L 83.397483 273.312 
L 83.397483 207.767172 
L 81.779324 207.767172 
z
" style="fill:#1f77b4;"/>
   </g>
   <g id="patch_17">
    <path clip-path="url(#p76be8f1bd9)" d="M 83.397483 273.312 
L 85.015642 273.312 
L 85.015642 223.789241 
L 83.397483 223.789241 
z
" style="fill:#1f77b4;"/>
   </g>
   <g id="patch_18">
    <path clip-path="url(#p76be8f1bd9)" d="M 85.015642 273.312 
L 86.633801 273.312 
L 86.633801 212.865103 
L 85.015642 212.865103 
z
" style="fill:#1f77b4;"/>
   </g>
   <g id="patch_19">
    <path clip-path="url(#p76be8f1bd9)" d="M 86.633801 273.312 
L 88.251961 273.312 
L 88.251961 225.974069 
L 86.633801 225.974069 
z
" style="fill:#1f77b4;"/>
   </g>
   <g id="patch_20">
    <path clip-path="url(#p76be8f1bd9)" d="M 88.251961 273.312 
L 89.87012 273.312 
L 89.87012 220.147862 
L 88.251961 220.147862 
z
" style="fill:#1f77b4;"/>
   </g>
   <g id="patch_21">
    <path clip-path="url(#p76be8f1bd9)" d="M 89.87012 273.312 
L 91.488279 273.312 
L 91.488279 198.299586 
L 89.87012 198.299586 
z
" style="fill:#1f77b4;"/>
   </g>
   <g id="patch_22">
    <path clip-path="url(#p76be8f1bd9)" d="M 91.488279 273.312 
L 93.106438 273.312 
L 93.106438 212.865103 
L 91.488279 212.865103 
z
" style="fill:#1f77b4;"/>
   </g>
   <g id="patch_23">
    <path clip-path="url(#p76be8f1bd9)" d="M 93.106438 273.312 
L 94.724597 273.312 
L 94.724597 195.386483 
L 93.106438 195.386483 
z
" style="fill:#1f77b4;"/>
   </g>
   <g id="patch_24">
    <path clip-path="url(#p76be8f1bd9)" d="M 94.724597 273.312 
L 96.342756 273.312 
L 96.342756 189.560276 
L 94.724597 189.560276 
z
" style="fill:#1f77b4;"/>
   </g>
   <g id="patch_25">
    <path clip-path="url(#p76be8f1bd9)" d="M 96.342756 273.312 
L 97.960916 273.312 
L 97.960916 199.756138 
L 96.342756 199.756138 
z
" style="fill:#1f77b4;"/>
   </g>
   <g id="patch_26">
    <path clip-path="url(#p76be8f1bd9)" d="M 97.960916 273.312 
L 99.579075 273.312 
L 99.579075 178.636138 
L 97.960916 178.636138 
z
" style="fill:#1f77b4;"/>
   </g>
   <g id="patch_27">
    <path clip-path="url(#p76be8f1bd9)" d="M 99.579075 273.312 
L 101.197234 273.312 
L 101.197234 194.658207 
L 99.579075 194.658207 
z
" style="fill:#1f77b4;"/>
   </g>
   <g id="patch_28">
    <path clip-path="url(#p76be8f1bd9)" d="M 101.197234 273.312 
L 102.815393 273.312 
L 102.815393 184.462345 
L 101.197234 184.462345 
z
" style="fill:#1f77b4;"/>
   </g>
   <g id="patch_29">
    <path clip-path="url(#p76be8f1bd9)" d="M 102.815393 273.312 
L 104.433552 273.312 
L 104.433552 192.473379 
L 102.815393 192.473379 
z
" style="fill:#1f77b4;"/>
   </g>
   <g id="patch_30">
    <path clip-path="url(#p76be8f1bd9)" d="M 104.433552 273.312 
L 106.051711 273.312 
L 106.051711 181.549241 
L 104.433552 181.549241 
z
" style="fill:#1f77b4;"/>
   </g>
   <g id="patch_31">
    <path clip-path="url(#p76be8f1bd9)" d="M 106.051711 273.312 
L 107.669871 273.312 
L 107.669871 171.353379 
L 106.051711 171.353379 
z
" style="fill:#1f77b4;"/>
   </g>
   <g id="patch_32">
    <path clip-path="url(#p76be8f1bd9)" d="M 107.669871 273.312 
L 109.28803 273.312 
L 109.28803 146.592 
L 107.669871 146.592 
z
" style="fill:#1f77b4;"/>
   </g>
   <g id="patch_33">
    <path clip-path="url(#p76be8f1bd9)" d="M 109.28803 273.312 
L 110.906189 273.312 
L 110.906189 142.950621 
L 109.28803 142.950621 
z
" style="fill:#1f77b4;"/>
   </g>
   <g id="patch_34">
    <path clip-path="url(#p76be8f1bd9)" d="M 110.906189 273.312 
L 112.524348 273.312 
L 112.524348 167.712 
L 110.906189 167.712 
z
" style="fill:#1f77b4;"/>
   </g>
   <g id="patch_35">
    <path clip-path="url(#p76be8f1bd9)" d="M 112.524348 273.312 
L 114.142507 273.312 
L 114.142507 148.048552 
L 112.524348 148.048552 
z
" style="fill:#1f77b4;"/>
   </g>
   <g id="patch_36">
    <path clip-path="url(#p76be8f1bd9)" d="M 114.142507 273.312 
L 115.760666 273.312 
L 115.760666 155.33131 
L 114.142507 155.33131 
z
" style="fill:#1f77b4;"/>
   </g>
   <g id="patch_37">
    <path clip-path="url(#p76be8f1bd9)" d="M 115.760666 273.312 
L 117.378826 273.312 
L 117.378826 152.418207 
L 115.760666 152.418207 
z
" style="fill:#1f77b4;"/>
   </g>
   <g id="patch_38">
    <path clip-path="url(#p76be8f1bd9)" d="M 117.378826 273.312 
L 118.996985 273.312 
L 118.996985 154.603034 
L 117.378826 154.603034 
z
" style="fill:#1f77b4;"/>
   </g>
   <g id="patch_39">
    <path clip-path="url(#p76be8f1bd9)" d="M 118.996985 273.312 
L 120.615144 273.312 
L 120.615144 150.233379 
L 118.996985 150.233379 
z
" style="fill:#1f77b4;"/>
   </g>
   <g id="patch_40">
    <path clip-path="url(#p76be8f1bd9)" d="M 120.615144 273.312 
L 122.233303 273.312 
L 122.233303 123.287172 
L 120.615144 123.287172 
z
" style="fill:#1f77b4;"/>
   </g>
   <g id="patch_41">
    <path clip-path="url(#p76be8f1bd9)" d="M 122.233303 273.312 
L 123.851462 273.312 
L 123.851462 142.950621 
L 122.233303 142.950621 
z
" style="fill:#1f77b4;"/>
   </g>
   <g id="patch_42">
    <path clip-path="url(#p76be8f1bd9)" d="M 123.851462 273.312 
L 125.469621 273.312 
L 125.469621 158.244414 
L 123.851462 158.244414 
z
" style="fill:#1f77b4;"/>
   </g>
   <g id="patch_43">
    <path clip-path="url(#p76be8f1bd9)" d="M 125.469621 273.312 
L 127.087781 273.312 
L 127.087781 148.048552 
L 125.469621 148.048552 
z
" style="fill:#1f77b4;"/>
   </g>
   <g id="patch_44">
    <path clip-path="url(#p76be8f1bd9)" d="M 127.087781 273.312 
L 128.70594 273.312 
L 128.70594 138.580966 
L 127.087781 138.580966 
z
" style="fill:#1f77b4;"/>
   </g>
   <g id="patch_45">
    <path clip-path="url(#p76be8f1bd9)" d="M 128.70594 273.312 
L 130.324099 273.312 
L 130.324099 137.124414 
L 128.70594 137.124414 
z
" style="fill:#1f77b4;"/>
   </g>
   <g id="patch_46">
    <path clip-path="url(#p76be8f1bd9)" d="M 130.324099 273.312 
L 131.942258 273.312 
L 131.942258 115.276138 
L 130.324099 115.276138 
z
" style="fill:#1f77b4;"/>
   </g>
   <g id="patch_47">
    <path clip-path="url(#p76be8f1bd9)" d="M 131.942258 273.312 
L 133.560417 273.312 
L 133.560417 122.558897 
L 131.942258 122.558897 
z
" style="fill:#1f77b4;"/>
   </g>
   <g id="patch_48">
    <path clip-path="url(#p76be8f1bd9)" d="M 133.560417 273.312 
L 135.178576 273.312 
L 135.178576 121.102345 
L 133.560417 121.102345 
z
" style="fill:#1f77b4;"/>
   </g>
   <g id="patch_49">
    <path clip-path="url(#p76be8f1bd9)" d="M 135.178576 273.312 
L 136.796736 273.312 
L 136.796736 133.483034 
L 135.178576 133.483034 
z
" style="fill:#1f77b4;"/>
   </g>
   <g id="patch_50">
    <path clip-path="url(#p76be8f1bd9)" d="M 136.796736 273.312 
L 138.414895 273.312 
L 138.414895 126.200276 
L 136.796736 126.200276 
z
" style="fill:#1f77b4;"/>
   </g>
   <g id="patch_51">
    <path clip-path="url(#p76be8f1bd9)" d="M 138.414895 273.312 
L 140.033054 273.312 
L 140.033054 119.645793 
L 138.414895 119.645793 
z
" style="fill:#1f77b4;"/>
   </g>
   <g id="patch_52">
    <path clip-path="url(#p76be8f1bd9)" d="M 140.033054 273.312 
L 141.651213 273.312 
L 141.651213 126.200276 
L 140.033054 126.200276 
z
" style="fill:#1f77b4;"/>
   </g>
   <g id="patch_53">
    <path clip-path="url(#p76be8f1bd9)" d="M 141.651213 273.312 
L 143.269372 273.312 
L 143.269372 100.710621 
L 141.651213 100.710621 
z
" style="fill:#1f77b4;"/>
   </g>
   <g id="patch_54">
    <path clip-path="url(#p76be8f1bd9)" d="M 143.269372 273.312 
L 144.887531 273.312 
L 144.887531 100.710621 
L 143.269372 100.710621 
z
" style="fill:#1f77b4;"/>
   </g>
   <g id="patch_55">
    <path clip-path="url(#p76be8f1bd9)" d="M 144.887531 273.312 
L 146.505691 273.312 
L 146.505691 115.276138 
L 144.887531 115.276138 
z
" style="fill:#1f77b4;"/>
   </g>
   <g id="patch_56">
    <path clip-path="url(#p76be8f1bd9)" d="M 146.505691 273.312 
L 148.12385 273.312 
L 148.12385 99.254069 
L 146.505691 99.254069 
z
" style="fill:#1f77b4;"/>
   </g>
   <g id="patch_57">
    <path clip-path="url(#p76be8f1bd9)" d="M 148.12385 273.312 
L 149.742009 273.312 
L 149.742009 97.069241 
L 148.12385 97.069241 
z
" style="fill:#1f77b4;"/>
   </g>
   <g id="patch_58">
    <path clip-path="url(#p76be8f1bd9)" d="M 149.742009 273.312 
L 151.360168 273.312 
L 151.360168 105.080276 
L 149.742009 105.080276 
z
" style="fill:#1f77b4;"/>
   </g>
   <g id="patch_59">
    <path clip-path="url(#p76be8f1bd9)" d="M 151.360168 273.312 
L 152.978327 273.312 
L 152.978327 99.254069 
L 151.360168 99.254069 
z
" style="fill:#1f77b4;"/>
   </g>
   <g id="patch_60">
    <path clip-path="url(#p76be8f1bd9)" d="M 152.978327 273.312 
L 154.596486 273.312 
L 154.596486 96.340966 
L 152.978327 96.340966 
z
" style="fill:#1f77b4;"/>
   </g>
   <g id="patch_61">
    <path clip-path="url(#p76be8f1bd9)" d="M 154.596486 273.312 
L 156.214646 273.312 
L 156.214646 107.265103 
L 154.596486 107.265103 
z
" style="fill:#1f77b4;"/>
   </g>
   <g id="patch_62">
    <path clip-path="url(#p76be8f1bd9)" d="M 156.214646 273.312 
L 157.832805 273.312 
L 157.832805 80.318897 
L 156.214646 80.318897 
z
" style="fill:#1f77b4;"/>
   </g>
   <g id="patch_63">
    <path clip-path="url(#p76be8f1bd9)" d="M 157.832805 273.312 
L 159.450964 273.312 
L 159.450964 88.329931 
L 157.832805 88.329931 
z
" style="fill:#1f77b4;"/>
   </g>
   <g id="patch_64">
    <path clip-path="url(#p76be8f1bd9)" d="M 159.450964 273.312 
L 161.069123 273.312 
L 161.069123 67.938207 
L 159.450964 67.938207 
z
" style="fill:#1f77b4;"/>
   </g>
   <g id="patch_65">
    <path clip-path="url(#p76be8f1bd9)" d="M 161.069123 273.312 
L 162.687282 273.312 
L 162.687282 89.058207 
L 161.069123 89.058207 
z
" style="fill:#1f77b4;"/>
   </g>
   <g id="patch_66">
    <path clip-path="url(#p76be8f1bd9)" d="M 162.687282 273.312 
L 164.305441 273.312 
L 164.305441 81.775448 
L 162.687282 81.775448 
z
" style="fill:#1f77b4;"/>
   </g>
   <g id="patch_67">
    <path clip-path="url(#p76be8f1bd9)" d="M 164.305441 273.312 
L 165.923601 273.312 
L 165.923601 79.590621 
L 164.305441 79.590621 
z
" style="fill:#1f77b4;"/>
   </g>
   <g id="patch_68">
    <path clip-path="url(#p76be8f1bd9)" d="M 165.923601 273.312 
L 167.54176 273.312 
L 167.54176 61.383724 
L 165.923601 61.383724 
z
" style="fill:#1f77b4;"/>
   </g>
   <g id="patch_69">
    <path clip-path="url(#p76be8f1bd9)" d="M 167.54176 273.312 
L 169.159919 273.312 
L 169.159919 55.557517 
L 167.54176 55.557517 
z
" style="fill:#1f77b4;"/>
   </g>
   <g id="patch_70">
    <path clip-path="url(#p76be8f1bd9)" d="M 169.159919 273.312 
L 170.778078 273.312 
L 170.778078 90.514759 
L 169.159919 90.514759 
z
" style="fill:#1f77b4;"/>
   </g>
   <g id="patch_71">
    <path clip-path="url(#p76be8f1bd9)" d="M 170.778078 273.312 
L 172.396237 273.312 
L 172.396237 91.243034 
L 170.778078 91.243034 
z
" style="fill:#1f77b4;"/>
   </g>
   <g id="patch_72">
    <path clip-path="url(#p76be8f1bd9)" d="M 172.396237 273.312 
L 174.014396 273.312 
L 174.014396 66.481655 
L 172.396237 66.481655 
z
" style="fill:#1f77b4;"/>
   </g>
   <g id="patch_73">
    <path clip-path="url(#p76be8f1bd9)" d="M 174.014396 273.312 
L 175.632556 273.312 
L 175.632556 71.579586 
L 174.014396 71.579586 
z
" style="fill:#1f77b4;"/>
   </g>
   <g id="patch_74">
    <path clip-path="url(#p76be8f1bd9)" d="M 175.632556 273.312 
L 177.250715 273.312 
L 177.250715 62.112 
L 175.632556 62.112 
z
" style="fill:#1f77b4;"/>
   </g>
   <g id="patch_75">
    <path clip-path="url(#p76be8f1bd9)" d="M 177.250715 273.312 
L 178.868874 273.312 
L 178.868874 65.753379 
L 177.250715 65.753379 
z
" style="fill:#1f77b4;"/>
   </g>
   <g id="patch_76">
    <path clip-path="url(#p76be8f1bd9)" d="M 178.868874 273.312 
L 180.487033 273.312 
L 180.487033 48.274759 
L 178.868874 48.274759 
z
" style="fill:#1f77b4;"/>
   </g>
   <g id="patch_77">
    <path clip-path="url(#p76be8f1bd9)" d="M 180.487033 273.312 
L 182.105192 273.312 
L 182.105192 38.078897 
L 180.487033 38.078897 
z
" style="fill:#1f77b4;"/>
   </g>
   <g id="patch_78">
    <path clip-path="url(#p76be8f1bd9)" d="M 182.105192 273.312 
L 183.723351 273.312 
L 183.723351 52.644414 
L 182.105192 52.644414 
z
" style="fill:#1f77b4;"/>
   </g>
   <g id="patch_79">
    <path clip-path="url(#p76be8f1bd9)" d="M 183.723351 273.312 
L 185.341511 273.312 
L 185.341511 75.220966 
L 183.723351 75.220966 
z
" style="fill:#1f77b4;"/>
   </g>
   <g id="patch_80">
    <path clip-path="url(#p76be8f1bd9)" d="M 185.341511 273.312 
L 186.95967 273.312 
L 186.95967 60.655448 
L 185.341511 60.655448 
z
" style="fill:#1f77b4;"/>
   </g>
   <g id="patch_81">
    <path clip-path="url(#p76be8f1bd9)" d="M 186.95967 273.312 
L 188.577829 273.312 
L 188.577829 62.112 
L 186.95967 62.112 
z
" style="fill:#1f77b4;"/>
   </g>
   <g id="patch_82">
    <path clip-path="url(#p76be8f1bd9)" d="M 188.577829 273.312 
L 190.195988 273.312 
L 190.195988 66.481655 
L 188.577829 66.481655 
z
" style="fill:#1f77b4;"/>
   </g>
   <g id="patch_83">
    <path clip-path="url(#p76be8f1bd9)" d="M 190.195988 273.312 
L 191.814147 273.312 
L 191.814147 57.742345 
L 190.195988 57.742345 
z
" style="fill:#1f77b4;"/>
   </g>
   <g id="patch_84">
    <path clip-path="url(#p76be8f1bd9)" d="M 191.814147 273.312 
L 193.432306 273.312 
L 193.432306 72.307862 
L 191.814147 72.307862 
z
" style="fill:#1f77b4;"/>
   </g>
   <g id="patch_85">
    <path clip-path="url(#p76be8f1bd9)" d="M 193.432306 273.312 
L 195.050466 273.312 
L 195.050466 40.263724 
L 193.432306 40.263724 
z
" style="fill:#1f77b4;"/>
   </g>
   <g id="patch_86">
    <path clip-path="url(#p76be8f1bd9)" d="M 195.050466 273.312 
L 196.668625 273.312 
L 196.668625 49.003034 
L 195.050466 49.003034 
z
" style="fill:#1f77b4;"/>
   </g>
   <g id="patch_87">
    <path clip-path="url(#p76be8f1bd9)" d="M 196.668625 273.312 
L 198.286784 273.312 
L 198.286784 65.025103 
L 196.668625 65.025103 
z
" style="fill:#1f77b4;"/>
   </g>
   <g id="patch_88">
    <path clip-path="url(#p76be8f1bd9)" d="M 198.286784 273.312 
L 199.904943 273.312 
L 199.904943 75.949241 
L 198.286784 75.949241 
z
" style="fill:#1f77b4;"/>
   </g>
   <g id="patch_89">
    <path clip-path="url(#p76be8f1bd9)" d="M 199.904943 273.312 
L 201.523102 273.312 
L 201.523102 39.535448 
L 199.904943 39.535448 
z
" style="fill:#1f77b4;"/>
   </g>
   <g id="patch_90">
    <path clip-path="url(#p76be8f1bd9)" d="M 201.523102 273.312 
L 203.141261 273.312 
L 203.141261 46.089931 
L 201.523102 46.089931 
z
" style="fill:#1f77b4;"/>
   </g>
   <g id="patch_91">
    <path clip-path="url(#p76be8f1bd9)" d="M 203.141261 273.312 
L 204.759421 273.312 
L 204.759421 46.818207 
L 203.141261 46.818207 
z
" style="fill:#1f77b4;"/>
   </g>
   <g id="patch_92">
    <path clip-path="url(#p76be8f1bd9)" d="M 204.759421 273.312 
L 206.37758 273.312 
L 206.37758 43.176828 
L 204.759421 43.176828 
z
" style="fill:#1f77b4;"/>
   </g>
   <g id="patch_93">
    <path clip-path="url(#p76be8f1bd9)" d="M 206.37758 273.312 
L 207.995739 273.312 
L 207.995739 44.633379 
L 206.37758 44.633379 
z
" style="fill:#1f77b4;"/>
   </g>
   <g id="patch_94">
    <path clip-path="url(#p76be8f1bd9)" d="M 207.995739 273.312 
L 209.613898 273.312 
L 209.613898 35.165793 
L 207.995739 35.165793 
z
" style="fill:#1f77b4;"/>
   </g>
   <g id="patch_95">
    <path clip-path="url(#p76be8f1bd9)" d="M 209.613898 273.312 
L 211.232057 273.312 
L 211.232057 45.361655 
L 209.613898 45.361655 
z
" style="fill:#1f77b4;"/>
   </g>
   <g id="patch_96">
    <path clip-path="url(#p76be8f1bd9)" d="M 211.232057 273.312 
L 212.850216 273.312 
L 212.850216 32.980966 
L 211.232057 32.980966 
z
" style="fill:#1f77b4;"/>
   </g>
   <g id="patch_97">
    <path clip-path="url(#p76be8f1bd9)" d="M 212.850216 273.312 
L 214.468376 273.312 
L 214.468376 19.872 
L 212.850216 19.872 
z
" style="fill:#1f77b4;"/>
   </g>
   <g id="patch_98">
    <path clip-path="url(#p76be8f1bd9)" d="M 214.468376 273.312 
L 216.086535 273.312 
L 216.086535 42.448552 
L 214.468376 42.448552 
z
" style="fill:#1f77b4;"/>
   </g>
   <g id="patch_99">
    <path clip-path="url(#p76be8f1bd9)" d="M 216.086535 273.312 
L 217.704694 273.312 
L 217.704694 59.198897 
L 216.086535 59.198897 
z
" style="fill:#1f77b4;"/>
   </g>
   <g id="patch_100">
    <path clip-path="url(#p76be8f1bd9)" d="M 217.704694 273.312 
L 219.322853 273.312 
L 219.322853 46.818207 
L 217.704694 46.818207 
z
" style="fill:#1f77b4;"/>
   </g>
   <g id="patch_101">
    <path clip-path="url(#p76be8f1bd9)" d="M 219.322853 273.312 
L 220.941012 273.312 
L 220.941012 40.992 
L 219.322853 40.992 
z
" style="fill:#1f77b4;"/>
   </g>
   <g id="patch_102">
    <path clip-path="url(#p76be8f1bd9)" d="M 220.941012 273.312 
L 222.559172 273.312 
L 222.559172 29.339586 
L 220.941012 29.339586 
z
" style="fill:#1f77b4;"/>
   </g>
   <g id="patch_103">
    <path clip-path="url(#p76be8f1bd9)" d="M 222.559172 273.312 
L 224.177331 273.312 
L 224.177331 57.014069 
L 222.559172 57.014069 
z
" style="fill:#1f77b4;"/>
   </g>
   <g id="patch_104">
    <path clip-path="url(#p76be8f1bd9)" d="M 224.177331 273.312 
L 225.79549 273.312 
L 225.79549 57.014069 
L 224.177331 57.014069 
z
" style="fill:#1f77b4;"/>
   </g>
   <g id="patch_105">
    <path clip-path="url(#p76be8f1bd9)" d="M 225.79549 273.312 
L 227.413649 273.312 
L 227.413649 49.73131 
L 225.79549 49.73131 
z
" style="fill:#1f77b4;"/>
   </g>
   <g id="patch_106">
    <path clip-path="url(#p76be8f1bd9)" d="M 227.413649 273.312 
L 229.031808 273.312 
L 229.031808 42.448552 
L 227.413649 42.448552 
z
" style="fill:#1f77b4;"/>
   </g>
   <g id="patch_107">
    <path clip-path="url(#p76be8f1bd9)" d="M 229.031808 273.312 
L 230.649967 273.312 
L 230.649967 64.296828 
L 229.031808 64.296828 
z
" style="fill:#1f77b4;"/>
   </g>
   <g id="patch_108">
    <path clip-path="url(#p76be8f1bd9)" d="M 230.649967 273.312 
L 232.268127 273.312 
L 232.268127 32.25269 
L 230.649967 32.25269 
z
" style="fill:#1f77b4;"/>
   </g>
   <g id="patch_109">
    <path clip-path="url(#p76be8f1bd9)" d="M 232.268127 273.312 
L 233.886286 273.312 
L 233.886286 26.426483 
L 232.268127 26.426483 
z
" style="fill:#1f77b4;"/>
   </g>
   <g id="patch_110">
    <path clip-path="url(#p76be8f1bd9)" d="M 233.886286 273.312 
L 235.504445 273.312 
L 235.504445 50.459586 
L 233.886286 50.459586 
z
" style="fill:#1f77b4;"/>
   </g>
   <g id="patch_111">
    <path clip-path="url(#p76be8f1bd9)" d="M 235.504445 273.312 
L 237.122604 273.312 
L 237.122604 44.633379 
L 235.504445 44.633379 
z
" style="fill:#1f77b4;"/>
   </g>
   <g id="patch_112">
    <path clip-path="url(#p76be8f1bd9)" d="M 237.122604 273.312 
L 238.740763 273.312 
L 238.740763 51.916138 
L 237.122604 51.916138 
z
" style="fill:#1f77b4;"/>
   </g>
   <g id="patch_113">
    <path clip-path="url(#p76be8f1bd9)" d="M 238.740763 273.312 
L 240.358922 273.312 
L 240.358922 31.524414 
L 238.740763 31.524414 
z
" style="fill:#1f77b4;"/>
   </g>
   <g id="patch_114">
    <path clip-path="url(#p76be8f1bd9)" d="M 240.358922 273.312 
L 241.977082 273.312 
L 241.977082 41.720276 
L 240.358922 41.720276 
z
" style="fill:#1f77b4;"/>
   </g>
   <g id="patch_115">
    <path clip-path="url(#p76be8f1bd9)" d="M 241.977082 273.312 
L 243.595241 273.312 
L 243.595241 82.503724 
L 241.977082 82.503724 
z
" style="fill:#1f77b4;"/>
   </g>
   <g id="patch_116">
    <path clip-path="url(#p76be8f1bd9)" d="M 243.595241 273.312 
L 245.2134 273.312 
L 245.2134 58.470621 
L 243.595241 58.470621 
z
" style="fill:#1f77b4;"/>
   </g>
   <g id="patch_117">
    <path clip-path="url(#p76be8f1bd9)" d="M 245.2134 273.312 
L 246.831559 273.312 
L 246.831559 35.894069 
L 245.2134 35.894069 
z
" style="fill:#1f77b4;"/>
   </g>
   <g id="patch_118">
    <path clip-path="url(#p76be8f1bd9)" d="M 246.831559 273.312 
L 248.449718 273.312 
L 248.449718 53.37269 
L 246.831559 53.37269 
z
" style="fill:#1f77b4;"/>
   </g>
   <g id="patch_119">
    <path clip-path="url(#p76be8f1bd9)" d="M 248.449718 273.312 
L 250.067877 273.312 
L 250.067877 70.123034 
L 248.449718 70.123034 
z
" style="fill:#1f77b4;"/>
   </g>
   <g id="patch_120">
    <path clip-path="url(#p76be8f1bd9)" d="M 250.067877 273.312 
L 251.686037 273.312 
L 251.686037 46.089931 
L 250.067877 46.089931 
z
" style="fill:#1f77b4;"/>
   </g>
   <g id="patch_121">
    <path clip-path="url(#p76be8f1bd9)" d="M 251.686037 273.312 
L 253.304196 273.312 
L 253.304196 51.187862 
L 251.686037 51.187862 
z
" style="fill:#1f77b4;"/>
   </g>
   <g id="patch_122">
    <path clip-path="url(#p76be8f1bd9)" d="M 253.304196 273.312 
L 254.922355 273.312 
L 254.922355 39.535448 
L 253.304196 39.535448 
z
" style="fill:#1f77b4;"/>
   </g>
   <g id="patch_123">
    <path clip-path="url(#p76be8f1bd9)" d="M 254.922355 273.312 
L 256.540514 273.312 
L 256.540514 51.916138 
L 254.922355 51.916138 
z
" style="fill:#1f77b4;"/>
   </g>
   <g id="patch_124">
    <path clip-path="url(#p76be8f1bd9)" d="M 256.540514 273.312 
L 258.158673 273.312 
L 258.158673 49.73131 
L 256.540514 49.73131 
z
" style="fill:#1f77b4;"/>
   </g>
   <g id="patch_125">
    <path clip-path="url(#p76be8f1bd9)" d="M 258.158673 273.312 
L 259.776832 273.312 
L 259.776832 67.938207 
L 258.158673 67.938207 
z
" style="fill:#1f77b4;"/>
   </g>
   <g id="patch_126">
    <path clip-path="url(#p76be8f1bd9)" d="M 259.776832 273.312 
L 261.394992 273.312 
L 261.394992 59.927172 
L 259.776832 59.927172 
z
" style="fill:#1f77b4;"/>
   </g>
   <g id="patch_127">
    <path clip-path="url(#p76be8f1bd9)" d="M 261.394992 273.312 
L 263.013151 273.312 
L 263.013151 73.036138 
L 261.394992 73.036138 
z
" style="fill:#1f77b4;"/>
   </g>
   <g id="patch_128">
    <path clip-path="url(#p76be8f1bd9)" d="M 263.013151 273.312 
L 264.63131 273.312 
L 264.63131 67.938207 
L 263.013151 67.938207 
z
" style="fill:#1f77b4;"/>
   </g>
   <g id="patch_129">
    <path clip-path="url(#p76be8f1bd9)" d="M 264.63131 273.312 
L 266.249469 273.312 
L 266.249469 42.448552 
L 264.63131 42.448552 
z
" style="fill:#1f77b4;"/>
   </g>
   <g id="patch_130">
    <path clip-path="url(#p76be8f1bd9)" d="M 266.249469 273.312 
L 267.867628 273.312 
L 267.867628 54.829241 
L 266.249469 54.829241 
z
" style="fill:#1f77b4;"/>
   </g>
   <g id="patch_131">
    <path clip-path="url(#p76be8f1bd9)" d="M 267.867628 273.312 
L 269.485787 273.312 
L 269.485787 78.862345 
L 267.867628 78.862345 
z
" style="fill:#1f77b4;"/>
   </g>
   <g id="patch_132">
    <path clip-path="url(#p76be8f1bd9)" d="M 269.485787 273.312 
L 271.103947 273.312 
L 271.103947 97.069241 
L 269.485787 97.069241 
z
" style="fill:#1f77b4;"/>
   </g>
   <g id="patch_133">
    <path clip-path="url(#p76be8f1bd9)" d="M 271.103947 273.312 
L 272.722106 273.312 
L 272.722106 78.862345 
L 271.103947 78.862345 
z
" style="fill:#1f77b4;"/>
   </g>
   <g id="patch_134">
    <path clip-path="url(#p76be8f1bd9)" d="M 272.722106 273.312 
L 274.340265 273.312 
L 274.340265 99.982345 
L 272.722106 99.982345 
z
" style="fill:#1f77b4;"/>
   </g>
   <g id="patch_135">
    <path clip-path="url(#p76be8f1bd9)" d="M 274.340265 273.312 
L 275.958424 273.312 
L 275.958424 75.220966 
L 274.340265 75.220966 
z
" style="fill:#1f77b4;"/>
   </g>
   <g id="patch_136">
    <path clip-path="url(#p76be8f1bd9)" d="M 275.958424 273.312 
L 277.576583 273.312 
L 277.576583 73.764414 
L 275.958424 73.764414 
z
" style="fill:#1f77b4;"/>
   </g>
   <g id="patch_137">
    <path clip-path="url(#p76be8f1bd9)" d="M 277.576583 273.312 
L 279.194742 273.312 
L 279.194742 97.069241 
L 277.576583 97.069241 
z
" style="fill:#1f77b4;"/>
   </g>
   <g id="patch_138">
    <path clip-path="url(#p76be8f1bd9)" d="M 279.194742 273.312 
L 280.812902 273.312 
L 280.812902 75.949241 
L 279.194742 75.949241 
z
" style="fill:#1f77b4;"/>
   </g>
   <g id="patch_139">
    <path clip-path="url(#p76be8f1bd9)" d="M 280.812902 273.312 
L 282.431061 273.312 
L 282.431061 86.873379 
L 280.812902 86.873379 
z
" style="fill:#1f77b4;"/>
   </g>
   <g id="patch_140">
    <path clip-path="url(#p76be8f1bd9)" d="M 282.431061 273.312 
L 284.04922 273.312 
L 284.04922 86.873379 
L 282.431061 86.873379 
z
" style="fill:#1f77b4;"/>
   </g>
   <g id="patch_141">
    <path clip-path="url(#p76be8f1bd9)" d="M 284.04922 273.312 
L 285.667379 273.312 
L 285.667379 79.590621 
L 284.04922 79.590621 
z
" style="fill:#1f77b4;"/>
   </g>
   <g id="patch_142">
    <path clip-path="url(#p76be8f1bd9)" d="M 285.667379 273.312 
L 287.285538 273.312 
L 287.285538 78.862345 
L 285.667379 78.862345 
z
" style="fill:#1f77b4;"/>
   </g>
   <g id="patch_143">
    <path clip-path="url(#p76be8f1bd9)" d="M 287.285538 273.312 
L 288.903697 273.312 
L 288.903697 91.97131 
L 287.285538 91.97131 
z
" style="fill:#1f77b4;"/>
   </g>
   <g id="patch_144">
    <path clip-path="url(#p76be8f1bd9)" d="M 288.903697 273.312 
L 290.521857 273.312 
L 290.521857 83.960276 
L 288.903697 83.960276 
z
" style="fill:#1f77b4;"/>
   </g>
   <g id="patch_145">
    <path clip-path="url(#p76be8f1bd9)" d="M 290.521857 273.312 
L 292.140016 273.312 
L 292.140016 101.438897 
L 290.521857 101.438897 
z
" style="fill:#1f77b4;"/>
   </g>
   <g id="patch_146">
    <path clip-path="url(#p76be8f1bd9)" d="M 292.140016 273.312 
L 293.758175 273.312 
L 293.758175 102.895448 
L 292.140016 102.895448 
z
" style="fill:#1f77b4;"/>
   </g>
   <g id="patch_147">
    <path clip-path="url(#p76be8f1bd9)" d="M 293.758175 273.312 
L 295.376334 273.312 
L 295.376334 88.329931 
L 293.758175 88.329931 
z
" style="fill:#1f77b4;"/>
   </g>
   <g id="patch_148">
    <path clip-path="url(#p76be8f1bd9)" d="M 295.376334 273.312 
L 296.994493 273.312 
L 296.994493 105.808552 
L 295.376334 105.808552 
z
" style="fill:#1f77b4;"/>
   </g>
   <g id="patch_149">
    <path clip-path="url(#p76be8f1bd9)" d="M 296.994493 273.312 
L 298.612652 273.312 
L 298.612652 68.666483 
L 296.994493 68.666483 
z
" style="fill:#1f77b4;"/>
   </g>
   <g id="patch_150">
    <path clip-path="url(#p76be8f1bd9)" d="M 298.612652 273.312 
L 300.230812 273.312 
L 300.230812 104.352 
L 298.612652 104.352 
z
" style="fill:#1f77b4;"/>
   </g>
   <g id="patch_151">
    <path clip-path="url(#p76be8f1bd9)" d="M 300.230812 273.312 
L 301.848971 273.312 
L 301.848971 92.699586 
L 300.230812 92.699586 
z
" style="fill:#1f77b4;"/>
   </g>
   <g id="patch_152">
    <path clip-path="url(#p76be8f1bd9)" d="M 301.848971 273.312 
L 303.46713 273.312 
L 303.46713 114.547862 
L 301.848971 114.547862 
z
" style="fill:#1f77b4;"/>
   </g>
   <g id="patch_153">
    <path clip-path="url(#p76be8f1bd9)" d="M 303.46713 273.312 
L 305.085289 273.312 
L 305.085289 96.340966 
L 303.46713 96.340966 
z
" style="fill:#1f77b4;"/>
   </g>
   <g id="patch_154">
    <path clip-path="url(#p76be8f1bd9)" d="M 305.085289 273.312 
L 306.703448 273.312 
L 306.703448 109.449931 
L 305.085289 109.449931 
z
" style="fill:#1f77b4;"/>
   </g>
   <g id="patch_155">
    <path clip-path="url(#p76be8f1bd9)" d="M 306.703448 273.312 
L 308.321607 273.312 
L 308.321607 116.004414 
L 306.703448 116.004414 
z
" style="fill:#1f77b4;"/>
   </g>
   <g id="patch_156">
    <path clip-path="url(#p76be8f1bd9)" d="M 308.321607 273.312 
L 309.939767 273.312 
L 309.939767 131.298207 
L 308.321607 131.298207 
z
" style="fill:#1f77b4;"/>
   </g>
   <g id="patch_157">
    <path clip-path="url(#p76be8f1bd9)" d="M 309.939767 273.312 
L 311.557926 273.312 
L 311.557926 123.287172 
L 309.939767 123.287172 
z
" style="fill:#1f77b4;"/>
   </g>
   <g id="patch_158">
    <path clip-path="url(#p76be8f1bd9)" d="M 311.557926 273.312 
L 313.176085 273.312 
L 313.176085 126.928552 
L 311.557926 126.928552 
z
" style="fill:#1f77b4;"/>
   </g>
   <g id="patch_159">
    <path clip-path="url(#p76be8f1bd9)" d="M 313.176085 273.312 
L 314.794244 273.312 
L 314.794244 129.113379 
L 313.176085 129.113379 
z
" style="fill:#1f77b4;"/>
   </g>
   <g id="patch_160">
    <path clip-path="url(#p76be8f1bd9)" d="M 314.794244 273.312 
L 316.412403 273.312 
L 316.412403 140.037517 
L 314.794244 140.037517 
z
" style="fill:#1f77b4;"/>
   </g>
   <g id="patch_161">
    <path clip-path="url(#p76be8f1bd9)" d="M 316.412403 273.312 
L 318.030562 273.312 
L 318.030562 124.015448 
L 316.412403 124.015448 
z
" style="fill:#1f77b4;"/>
   </g>
   <g id="patch_162">
    <path clip-path="url(#p76be8f1bd9)" d="M 318.030562 273.312 
L 319.648722 273.312 
L 319.648722 116.004414 
L 318.030562 116.004414 
z
" style="fill:#1f77b4;"/>
   </g>
   <g id="patch_163">
    <path clip-path="url(#p76be8f1bd9)" d="M 319.648722 273.312 
L 321.266881 273.312 
L 321.266881 158.97269 
L 319.648722 158.97269 
z
" style="fill:#1f77b4;"/>
   </g>
   <g id="patch_164">
    <path clip-path="url(#p76be8f1bd9)" d="M 321.266881 273.312 
L 322.88504 273.312 
L 322.88504 156.059586 
L 321.266881 156.059586 
z
" style="fill:#1f77b4;"/>
   </g>
   <g id="patch_165">
    <path clip-path="url(#p76be8f1bd9)" d="M 322.88504 273.312 
L 324.503199 273.312 
L 324.503199 155.33131 
L 322.88504 155.33131 
z
" style="fill:#1f77b4;"/>
   </g>
   <g id="patch_166">
    <path clip-path="url(#p76be8f1bd9)" d="M 324.503199 273.312 
L 326.121358 273.312 
L 326.121358 151.689931 
L 324.503199 151.689931 
z
" style="fill:#1f77b4;"/>
   </g>
   <g id="patch_167">
    <path clip-path="url(#p76be8f1bd9)" d="M 326.121358 273.312 
L 327.739517 273.312 
L 327.739517 148.048552 
L 326.121358 148.048552 
z
" style="fill:#1f77b4;"/>
   </g>
   <g id="patch_168">
    <path clip-path="url(#p76be8f1bd9)" d="M 327.739517 273.312 
L 329.357677 273.312 
L 329.357677 151.689931 
L 327.739517 151.689931 
z
" style="fill:#1f77b4;"/>
   </g>
   <g id="patch_169">
    <path clip-path="url(#p76be8f1bd9)" d="M 329.357677 273.312 
L 330.975836 273.312 
L 330.975836 170.625103 
L 329.357677 170.625103 
z
" style="fill:#1f77b4;"/>
   </g>
   <g id="patch_170">
    <path clip-path="url(#p76be8f1bd9)" d="M 330.975836 273.312 
L 332.593995 273.312 
L 332.593995 167.712 
L 330.975836 167.712 
z
" style="fill:#1f77b4;"/>
   </g>
   <g id="patch_171">
    <path clip-path="url(#p76be8f1bd9)" d="M 332.593995 273.312 
L 334.212154 273.312 
L 334.212154 174.266483 
L 332.593995 174.266483 
z
" style="fill:#1f77b4;"/>
   </g>
   <g id="patch_172">
    <path clip-path="url(#p76be8f1bd9)" d="M 334.212154 273.312 
L 335.830313 273.312 
L 335.830313 165.527172 
L 334.212154 165.527172 
z
" style="fill:#1f77b4;"/>
   </g>
   <g id="patch_173">
    <path clip-path="url(#p76be8f1bd9)" d="M 335.830313 273.312 
L 337.448472 273.312 
L 337.448472 165.527172 
L 335.830313 165.527172 
z
" style="fill:#1f77b4;"/>
   </g>
   <g id="patch_174">
    <path clip-path="url(#p76be8f1bd9)" d="M 337.448472 273.312 
L 339.066632 273.312 
L 339.066632 164.070621 
L 337.448472 164.070621 
z
" style="fill:#1f77b4;"/>
   </g>
   <g id="patch_175">
    <path clip-path="url(#p76be8f1bd9)" d="M 339.066632 273.312 
L 340.684791 273.312 
L 340.684791 195.386483 
L 339.066632 195.386483 
z
" style="fill:#1f77b4;"/>
   </g>
   <g id="patch_176">
    <path clip-path="url(#p76be8f1bd9)" d="M 340.684791 273.312 
L 342.30295 273.312 
L 342.30295 188.103724 
L 340.684791 188.103724 
z
" style="fill:#1f77b4;"/>
   </g>
   <g id="patch_177">
    <path clip-path="url(#p76be8f1bd9)" d="M 342.30295 273.312 
L 343.921109 273.312 
L 343.921109 182.277517 
L 342.30295 182.277517 
z
" style="fill:#1f77b4;"/>
   </g>
   <g id="patch_178">
    <path clip-path="url(#p76be8f1bd9)" d="M 343.921109 273.312 
L 345.539268 273.312 
L 345.539268 177.179586 
L 343.921109 177.179586 
z
" style="fill:#1f77b4;"/>
   </g>
   <g id="patch_179">
    <path clip-path="url(#p76be8f1bd9)" d="M 345.539268 273.312 
L 347.157427 273.312 
L 347.157427 199.027862 
L 345.539268 199.027862 
z
" style="fill:#1f77b4;"/>
   </g>
   <g id="patch_180">
    <path clip-path="url(#p76be8f1bd9)" d="M 347.157427 273.312 
L 348.775587 273.312 
L 348.775587 194.658207 
L 347.157427 194.658207 
z
" style="fill:#1f77b4;"/>
   </g>
   <g id="patch_181">
    <path clip-path="url(#p76be8f1bd9)" d="M 348.775587 273.312 
L 350.393746 273.312 
L 350.393746 196.843034 
L 348.775587 196.843034 
z
" style="fill:#1f77b4;"/>
   </g>
   <g id="patch_182">
    <path clip-path="url(#p76be8f1bd9)" d="M 350.393746 273.312 
L 352.011905 273.312 
L 352.011905 212.865103 
L 350.393746 212.865103 
z
" style="fill:#1f77b4;"/>
   </g>
   <g id="patch_183">
    <path clip-path="url(#p76be8f1bd9)" d="M 352.011905 273.312 
L 353.630064 273.312 
L 353.630064 211.408552 
L 352.011905 211.408552 
z
" style="fill:#1f77b4;"/>
   </g>
   <g id="patch_184">
    <path clip-path="url(#p76be8f1bd9)" d="M 353.630064 273.312 
L 355.248223 273.312 
L 355.248223 204.854069 
L 353.630064 204.854069 
z
" style="fill:#1f77b4;"/>
   </g>
   <g id="patch_185">
    <path clip-path="url(#p76be8f1bd9)" d="M 355.248223 273.312 
L 356.866382 273.312 
L 356.866382 212.865103 
L 355.248223 212.865103 
z
" style="fill:#1f77b4;"/>
   </g>
   <g id="patch_186">
    <path clip-path="url(#p76be8f1bd9)" d="M 356.866382 273.312 
L 358.484542 273.312 
L 358.484542 218.69131 
L 356.866382 218.69131 
z
" style="fill:#1f77b4;"/>
   </g>
   <g id="patch_187">
    <path clip-path="url(#p76be8f1bd9)" d="M 358.484542 273.312 
L 360.102701 273.312 
L 360.102701 211.408552 
L 358.484542 211.408552 
z
" style="fill:#1f77b4;"/>
   </g>
   <g id="patch_188">
    <path clip-path="url(#p76be8f1bd9)" d="M 360.102701 273.312 
L 361.72086 273.312 
L 361.72086 236.169931 
L 360.102701 236.169931 
z
" style="fill:#1f77b4;"/>
   </g>
   <g id="patch_189">
    <path clip-path="url(#p76be8f1bd9)" d="M 361.72086 273.312 
L 363.339019 273.312 
L 363.339019 220.147862 
L 361.72086 220.147862 
z
" style="fill:#1f77b4;"/>
   </g>
   <g id="patch_190">
    <path clip-path="url(#p76be8f1bd9)" d="M 363.339019 273.312 
L 364.957178 273.312 
L 364.957178 227.430621 
L 363.339019 227.430621 
z
" style="fill:#1f77b4;"/>
   </g>
   <g id="patch_191">
    <path clip-path="url(#p76be8f1bd9)" d="M 364.957178 273.312 
L 366.575337 273.312 
L 366.575337 224.517517 
L 364.957178 224.517517 
z
" style="fill:#1f77b4;"/>
   </g>
   <g id="patch_192">
    <path clip-path="url(#p76be8f1bd9)" d="M 366.575337 273.312 
L 368.193497 273.312 
L 368.193497 233.985103 
L 366.575337 233.985103 
z
" style="fill:#1f77b4;"/>
   </g>
   <g id="patch_193">
    <path clip-path="url(#p76be8f1bd9)" d="M 368.193497 273.312 
L 369.811656 273.312 
L 369.811656 239.81131 
L 368.193497 239.81131 
z
" style="fill:#1f77b4;"/>
   </g>
   <g id="patch_194">
    <path clip-path="url(#p76be8f1bd9)" d="M 369.811656 273.312 
L 371.429815 273.312 
L 371.429815 250.007172 
L 369.811656 250.007172 
z
" style="fill:#1f77b4;"/>
   </g>
   <g id="patch_195">
    <path clip-path="url(#p76be8f1bd9)" d="M 371.429815 273.312 
L 373.047974 273.312 
L 373.047974 240.539586 
L 371.429815 240.539586 
z
" style="fill:#1f77b4;"/>
   </g>
   <g id="patch_196">
    <path clip-path="url(#p76be8f1bd9)" d="M 373.047974 273.312 
L 374.666133 273.312 
L 374.666133 251.463724 
L 373.047974 251.463724 
z
" style="fill:#1f77b4;"/>
   </g>
   <g id="patch_197">
    <path clip-path="url(#p76be8f1bd9)" d="M 374.666133 273.312 
L 376.284292 273.312 
L 376.284292 252.192 
L 374.666133 252.192 
z
" style="fill:#1f77b4;"/>
   </g>
   <g id="patch_198">
    <path clip-path="url(#p76be8f1bd9)" d="M 376.284292 273.312 
L 377.902452 273.312 
L 377.902452 258.746483 
L 376.284292 258.746483 
z
" style="fill:#1f77b4;"/>
   </g>
   <g id="patch_199">
    <path clip-path="url(#p76be8f1bd9)" d="M 377.902452 273.312 
L 379.520611 273.312 
L 379.520611 266.029241 
L 377.902452 266.029241 
z
" style="fill:#1f77b4;"/>
   </g>
   <g id="patch_200">
    <path clip-path="url(#p76be8f1bd9)" d="M 379.520611 273.312 
L 381.13877 273.312 
L 381.13877 263.844414 
L 379.520611 263.844414 
z
" style="fill:#1f77b4;"/>
   </g>
   <g id="patch_201">
    <path clip-path="url(#p76be8f1bd9)" d="M 381.13877 273.312 
L 382.756929 273.312 
L 382.756929 269.670621 
L 381.13877 269.670621 
z
" style="fill:#1f77b4;"/>
   </g>
   <g id="patch_202">
    <path clip-path="url(#p76be8f1bd9)" d="M 382.756929 273.312 
L 384.375088 273.312 
L 384.375088 271.127172 
L 382.756929 271.127172 
z
" style="fill:#1f77b4;"/>
   </g>
   <g id="matplotlib.axis_1">
    <g id="xtick_1">
     <g id="line2d_1">
      <defs>
       <path d="M 0 0 
L 0 3.5 
" id="m3e87d464c2" style="stroke:#000000;stroke-width:0.8;"/>
      </defs>
      <g>
       <use style="stroke:#000000;stroke-width:0.8;" x="60.013977" xlink:href="#m3e87d464c2" y="273.312"/>
      </g>
     </g>
     <g id="text_1">
      <!-- 0.0 -->
      <g transform="translate(52.062415 287.910437)scale(0.1 -0.1)">
       <defs>
        <path d="M 2034 4250 
Q 1547 4250 1301 3770 
Q 1056 3291 1056 2328 
Q 1056 1369 1301 889 
Q 1547 409 2034 409 
Q 2525 409 2770 889 
Q 3016 1369 3016 2328 
Q 3016 3291 2770 3770 
Q 2525 4250 2034 4250 
z
M 2034 4750 
Q 2819 4750 3233 4129 
Q 3647 3509 3647 2328 
Q 3647 1150 3233 529 
Q 2819 -91 2034 -91 
Q 1250 -91 836 529 
Q 422 1150 422 2328 
Q 422 3509 836 4129 
Q 1250 4750 2034 4750 
z
" id="DejaVuSans-30" transform="scale(0.015625)"/>
        <path d="M 684 794 
L 1344 794 
L 1344 0 
L 684 0 
L 684 794 
z
" id="DejaVuSans-2e" transform="scale(0.015625)"/>
       </defs>
       <use xlink:href="#DejaVuSans-30"/>
       <use x="63.623047" xlink:href="#DejaVuSans-2e"/>
       <use x="95.410156" xlink:href="#DejaVuSans-30"/>
      </g>
     </g>
    </g>
    <g id="xtick_2">
     <g id="line2d_2">
      <g>
       <use style="stroke:#000000;stroke-width:0.8;" x="101.350278" xlink:href="#m3e87d464c2" y="273.312"/>
      </g>
     </g>
     <g id="text_2">
      <!-- 0.2 -->
      <g transform="translate(93.398715 287.910437)scale(0.1 -0.1)">
       <defs>
        <path d="M 1228 531 
L 3431 531 
L 3431 0 
L 469 0 
L 469 531 
Q 828 903 1448 1529 
Q 2069 2156 2228 2338 
Q 2531 2678 2651 2914 
Q 2772 3150 2772 3378 
Q 2772 3750 2511 3984 
Q 2250 4219 1831 4219 
Q 1534 4219 1204 4116 
Q 875 4013 500 3803 
L 500 4441 
Q 881 4594 1212 4672 
Q 1544 4750 1819 4750 
Q 2544 4750 2975 4387 
Q 3406 4025 3406 3419 
Q 3406 3131 3298 2873 
Q 3191 2616 2906 2266 
Q 2828 2175 2409 1742 
Q 1991 1309 1228 531 
z
" id="DejaVuSans-32" transform="scale(0.015625)"/>
       </defs>
       <use xlink:href="#DejaVuSans-30"/>
       <use x="63.623047" xlink:href="#DejaVuSans-2e"/>
       <use x="95.410156" xlink:href="#DejaVuSans-32"/>
      </g>
     </g>
    </g>
    <g id="xtick_3">
     <g id="line2d_3">
      <g>
       <use style="stroke:#000000;stroke-width:0.8;" x="142.686578" xlink:href="#m3e87d464c2" y="273.312"/>
      </g>
     </g>
     <g id="text_3">
      <!-- 0.4 -->
      <g transform="translate(134.735016 287.910437)scale(0.1 -0.1)">
       <defs>
        <path d="M 2419 4116 
L 825 1625 
L 2419 1625 
L 2419 4116 
z
M 2253 4666 
L 3047 4666 
L 3047 1625 
L 3713 1625 
L 3713 1100 
L 3047 1100 
L 3047 0 
L 2419 0 
L 2419 1100 
L 313 1100 
L 313 1709 
L 2253 4666 
z
" id="DejaVuSans-34" transform="scale(0.015625)"/>
       </defs>
       <use xlink:href="#DejaVuSans-30"/>
       <use x="63.623047" xlink:href="#DejaVuSans-2e"/>
       <use x="95.410156" xlink:href="#DejaVuSans-34"/>
      </g>
     </g>
    </g>
    <g id="xtick_4">
     <g id="line2d_4">
      <g>
       <use style="stroke:#000000;stroke-width:0.8;" x="184.022879" xlink:href="#m3e87d464c2" y="273.312"/>
      </g>
     </g>
     <g id="text_4">
      <!-- 0.6 -->
      <g transform="translate(176.071316 287.910437)scale(0.1 -0.1)">
       <defs>
        <path d="M 2113 2584 
Q 1688 2584 1439 2293 
Q 1191 2003 1191 1497 
Q 1191 994 1439 701 
Q 1688 409 2113 409 
Q 2538 409 2786 701 
Q 3034 994 3034 1497 
Q 3034 2003 2786 2293 
Q 2538 2584 2113 2584 
z
M 3366 4563 
L 3366 3988 
Q 3128 4100 2886 4159 
Q 2644 4219 2406 4219 
Q 1781 4219 1451 3797 
Q 1122 3375 1075 2522 
Q 1259 2794 1537 2939 
Q 1816 3084 2150 3084 
Q 2853 3084 3261 2657 
Q 3669 2231 3669 1497 
Q 3669 778 3244 343 
Q 2819 -91 2113 -91 
Q 1303 -91 875 529 
Q 447 1150 447 2328 
Q 447 3434 972 4092 
Q 1497 4750 2381 4750 
Q 2619 4750 2861 4703 
Q 3103 4656 3366 4563 
z
" id="DejaVuSans-36" transform="scale(0.015625)"/>
       </defs>
       <use xlink:href="#DejaVuSans-30"/>
       <use x="63.623047" xlink:href="#DejaVuSans-2e"/>
       <use x="95.410156" xlink:href="#DejaVuSans-36"/>
      </g>
     </g>
    </g>
    <g id="xtick_5">
     <g id="line2d_5">
      <g>
       <use style="stroke:#000000;stroke-width:0.8;" x="225.35918" xlink:href="#m3e87d464c2" y="273.312"/>
      </g>
     </g>
     <g id="text_5">
      <!-- 0.8 -->
      <g transform="translate(217.407617 287.910437)scale(0.1 -0.1)">
       <defs>
        <path d="M 2034 2216 
Q 1584 2216 1326 1975 
Q 1069 1734 1069 1313 
Q 1069 891 1326 650 
Q 1584 409 2034 409 
Q 2484 409 2743 651 
Q 3003 894 3003 1313 
Q 3003 1734 2745 1975 
Q 2488 2216 2034 2216 
z
M 1403 2484 
Q 997 2584 770 2862 
Q 544 3141 544 3541 
Q 544 4100 942 4425 
Q 1341 4750 2034 4750 
Q 2731 4750 3128 4425 
Q 3525 4100 3525 3541 
Q 3525 3141 3298 2862 
Q 3072 2584 2669 2484 
Q 3125 2378 3379 2068 
Q 3634 1759 3634 1313 
Q 3634 634 3220 271 
Q 2806 -91 2034 -91 
Q 1263 -91 848 271 
Q 434 634 434 1313 
Q 434 1759 690 2068 
Q 947 2378 1403 2484 
z
M 1172 3481 
Q 1172 3119 1398 2916 
Q 1625 2713 2034 2713 
Q 2441 2713 2670 2916 
Q 2900 3119 2900 3481 
Q 2900 3844 2670 4047 
Q 2441 4250 2034 4250 
Q 1625 4250 1398 4047 
Q 1172 3844 1172 3481 
z
" id="DejaVuSans-38" transform="scale(0.015625)"/>
       </defs>
       <use xlink:href="#DejaVuSans-30"/>
       <use x="63.623047" xlink:href="#DejaVuSans-2e"/>
       <use x="95.410156" xlink:href="#DejaVuSans-38"/>
      </g>
     </g>
    </g>
    <g id="xtick_6">
     <g id="line2d_6">
      <g>
       <use style="stroke:#000000;stroke-width:0.8;" x="266.69548" xlink:href="#m3e87d464c2" y="273.312"/>
      </g>
     </g>
     <g id="text_6">
      <!-- 1.0 -->
      <g transform="translate(258.743918 287.910437)scale(0.1 -0.1)">
       <defs>
        <path d="M 794 531 
L 1825 531 
L 1825 4091 
L 703 3866 
L 703 4441 
L 1819 4666 
L 2450 4666 
L 2450 531 
L 3481 531 
L 3481 0 
L 794 0 
L 794 531 
z
" id="DejaVuSans-31" transform="scale(0.015625)"/>
       </defs>
       <use xlink:href="#DejaVuSans-31"/>
       <use x="63.623047" xlink:href="#DejaVuSans-2e"/>
       <use x="95.410156" xlink:href="#DejaVuSans-30"/>
      </g>
     </g>
    </g>
    <g id="xtick_7">
     <g id="line2d_7">
      <g>
       <use style="stroke:#000000;stroke-width:0.8;" x="308.031781" xlink:href="#m3e87d464c2" y="273.312"/>
      </g>
     </g>
     <g id="text_7">
      <!-- 1.2 -->
      <g transform="translate(300.080218 287.910437)scale(0.1 -0.1)">
       <use xlink:href="#DejaVuSans-31"/>
       <use x="63.623047" xlink:href="#DejaVuSans-2e"/>
       <use x="95.410156" xlink:href="#DejaVuSans-32"/>
      </g>
     </g>
    </g>
    <g id="xtick_8">
     <g id="line2d_8">
      <g>
       <use style="stroke:#000000;stroke-width:0.8;" x="349.368081" xlink:href="#m3e87d464c2" y="273.312"/>
      </g>
     </g>
     <g id="text_8">
      <!-- 1.4 -->
      <g transform="translate(341.416519 287.910437)scale(0.1 -0.1)">
       <use xlink:href="#DejaVuSans-31"/>
       <use x="63.623047" xlink:href="#DejaVuSans-2e"/>
       <use x="95.410156" xlink:href="#DejaVuSans-34"/>
      </g>
     </g>
    </g>
    <g id="xtick_9">
     <g id="line2d_9">
      <g>
       <use style="stroke:#000000;stroke-width:0.8;" x="390.704382" xlink:href="#m3e87d464c2" y="273.312"/>
      </g>
     </g>
     <g id="text_9">
      <!-- 1.6 -->
      <g transform="translate(382.752819 287.910437)scale(0.1 -0.1)">
       <use xlink:href="#DejaVuSans-31"/>
       <use x="63.623047" xlink:href="#DejaVuSans-2e"/>
       <use x="95.410156" xlink:href="#DejaVuSans-36"/>
      </g>
     </g>
    </g>
    <g id="text_10">
     <!-- Angle with normal (rad) -->
     <g transform="translate(163.023281 301.588562)scale(0.1 -0.1)">
      <defs>
       <path d="M 2188 4044 
L 1331 1722 
L 3047 1722 
L 2188 4044 
z
M 1831 4666 
L 2547 4666 
L 4325 0 
L 3669 0 
L 3244 1197 
L 1141 1197 
L 716 0 
L 50 0 
L 1831 4666 
z
" id="DejaVuSans-41" transform="scale(0.015625)"/>
       <path d="M 3513 2113 
L 3513 0 
L 2938 0 
L 2938 2094 
Q 2938 2591 2744 2837 
Q 2550 3084 2163 3084 
Q 1697 3084 1428 2787 
Q 1159 2491 1159 1978 
L 1159 0 
L 581 0 
L 581 3500 
L 1159 3500 
L 1159 2956 
Q 1366 3272 1645 3428 
Q 1925 3584 2291 3584 
Q 2894 3584 3203 3211 
Q 3513 2838 3513 2113 
z
" id="DejaVuSans-6e" transform="scale(0.015625)"/>
       <path d="M 2906 1791 
Q 2906 2416 2648 2759 
Q 2391 3103 1925 3103 
Q 1463 3103 1205 2759 
Q 947 2416 947 1791 
Q 947 1169 1205 825 
Q 1463 481 1925 481 
Q 2391 481 2648 825 
Q 2906 1169 2906 1791 
z
M 3481 434 
Q 3481 -459 3084 -895 
Q 2688 -1331 1869 -1331 
Q 1566 -1331 1297 -1286 
Q 1028 -1241 775 -1147 
L 775 -588 
Q 1028 -725 1275 -790 
Q 1522 -856 1778 -856 
Q 2344 -856 2625 -561 
Q 2906 -266 2906 331 
L 2906 616 
Q 2728 306 2450 153 
Q 2172 0 1784 0 
Q 1141 0 747 490 
Q 353 981 353 1791 
Q 353 2603 747 3093 
Q 1141 3584 1784 3584 
Q 2172 3584 2450 3431 
Q 2728 3278 2906 2969 
L 2906 3500 
L 3481 3500 
L 3481 434 
z
" id="DejaVuSans-67" transform="scale(0.015625)"/>
       <path d="M 603 4863 
L 1178 4863 
L 1178 0 
L 603 0 
L 603 4863 
z
" id="DejaVuSans-6c" transform="scale(0.015625)"/>
       <path d="M 3597 1894 
L 3597 1613 
L 953 1613 
Q 991 1019 1311 708 
Q 1631 397 2203 397 
Q 2534 397 2845 478 
Q 3156 559 3463 722 
L 3463 178 
Q 3153 47 2828 -22 
Q 2503 -91 2169 -91 
Q 1331 -91 842 396 
Q 353 884 353 1716 
Q 353 2575 817 3079 
Q 1281 3584 2069 3584 
Q 2775 3584 3186 3129 
Q 3597 2675 3597 1894 
z
M 3022 2063 
Q 3016 2534 2758 2815 
Q 2500 3097 2075 3097 
Q 1594 3097 1305 2825 
Q 1016 2553 972 2059 
L 3022 2063 
z
" id="DejaVuSans-65" transform="scale(0.015625)"/>
       <path id="DejaVuSans-20" transform="scale(0.015625)"/>
       <path d="M 269 3500 
L 844 3500 
L 1563 769 
L 2278 3500 
L 2956 3500 
L 3675 769 
L 4391 3500 
L 4966 3500 
L 4050 0 
L 3372 0 
L 2619 2869 
L 1863 0 
L 1184 0 
L 269 3500 
z
" id="DejaVuSans-77" transform="scale(0.015625)"/>
       <path d="M 603 3500 
L 1178 3500 
L 1178 0 
L 603 0 
L 603 3500 
z
M 603 4863 
L 1178 4863 
L 1178 4134 
L 603 4134 
L 603 4863 
z
" id="DejaVuSans-69" transform="scale(0.015625)"/>
       <path d="M 1172 4494 
L 1172 3500 
L 2356 3500 
L 2356 3053 
L 1172 3053 
L 1172 1153 
Q 1172 725 1289 603 
Q 1406 481 1766 481 
L 2356 481 
L 2356 0 
L 1766 0 
Q 1100 0 847 248 
Q 594 497 594 1153 
L 594 3053 
L 172 3053 
L 172 3500 
L 594 3500 
L 594 4494 
L 1172 4494 
z
" id="DejaVuSans-74" transform="scale(0.015625)"/>
       <path d="M 3513 2113 
L 3513 0 
L 2938 0 
L 2938 2094 
Q 2938 2591 2744 2837 
Q 2550 3084 2163 3084 
Q 1697 3084 1428 2787 
Q 1159 2491 1159 1978 
L 1159 0 
L 581 0 
L 581 4863 
L 1159 4863 
L 1159 2956 
Q 1366 3272 1645 3428 
Q 1925 3584 2291 3584 
Q 2894 3584 3203 3211 
Q 3513 2838 3513 2113 
z
" id="DejaVuSans-68" transform="scale(0.015625)"/>
       <path d="M 1959 3097 
Q 1497 3097 1228 2736 
Q 959 2375 959 1747 
Q 959 1119 1226 758 
Q 1494 397 1959 397 
Q 2419 397 2687 759 
Q 2956 1122 2956 1747 
Q 2956 2369 2687 2733 
Q 2419 3097 1959 3097 
z
M 1959 3584 
Q 2709 3584 3137 3096 
Q 3566 2609 3566 1747 
Q 3566 888 3137 398 
Q 2709 -91 1959 -91 
Q 1206 -91 779 398 
Q 353 888 353 1747 
Q 353 2609 779 3096 
Q 1206 3584 1959 3584 
z
" id="DejaVuSans-6f" transform="scale(0.015625)"/>
       <path d="M 2631 2963 
Q 2534 3019 2420 3045 
Q 2306 3072 2169 3072 
Q 1681 3072 1420 2755 
Q 1159 2438 1159 1844 
L 1159 0 
L 581 0 
L 581 3500 
L 1159 3500 
L 1159 2956 
Q 1341 3275 1631 3429 
Q 1922 3584 2338 3584 
Q 2397 3584 2469 3576 
Q 2541 3569 2628 3553 
L 2631 2963 
z
" id="DejaVuSans-72" transform="scale(0.015625)"/>
       <path d="M 3328 2828 
Q 3544 3216 3844 3400 
Q 4144 3584 4550 3584 
Q 5097 3584 5394 3201 
Q 5691 2819 5691 2113 
L 5691 0 
L 5113 0 
L 5113 2094 
Q 5113 2597 4934 2840 
Q 4756 3084 4391 3084 
Q 3944 3084 3684 2787 
Q 3425 2491 3425 1978 
L 3425 0 
L 2847 0 
L 2847 2094 
Q 2847 2600 2669 2842 
Q 2491 3084 2119 3084 
Q 1678 3084 1418 2786 
Q 1159 2488 1159 1978 
L 1159 0 
L 581 0 
L 581 3500 
L 1159 3500 
L 1159 2956 
Q 1356 3278 1631 3431 
Q 1906 3584 2284 3584 
Q 2666 3584 2933 3390 
Q 3200 3197 3328 2828 
z
" id="DejaVuSans-6d" transform="scale(0.015625)"/>
       <path d="M 2194 1759 
Q 1497 1759 1228 1600 
Q 959 1441 959 1056 
Q 959 750 1161 570 
Q 1363 391 1709 391 
Q 2188 391 2477 730 
Q 2766 1069 2766 1631 
L 2766 1759 
L 2194 1759 
z
M 3341 1997 
L 3341 0 
L 2766 0 
L 2766 531 
Q 2569 213 2275 61 
Q 1981 -91 1556 -91 
Q 1019 -91 701 211 
Q 384 513 384 1019 
Q 384 1609 779 1909 
Q 1175 2209 1959 2209 
L 2766 2209 
L 2766 2266 
Q 2766 2663 2505 2880 
Q 2244 3097 1772 3097 
Q 1472 3097 1187 3025 
Q 903 2953 641 2809 
L 641 3341 
Q 956 3463 1253 3523 
Q 1550 3584 1831 3584 
Q 2591 3584 2966 3190 
Q 3341 2797 3341 1997 
z
" id="DejaVuSans-61" transform="scale(0.015625)"/>
       <path d="M 1984 4856 
Q 1566 4138 1362 3434 
Q 1159 2731 1159 2009 
Q 1159 1288 1364 580 
Q 1569 -128 1984 -844 
L 1484 -844 
Q 1016 -109 783 600 
Q 550 1309 550 2009 
Q 550 2706 781 3412 
Q 1013 4119 1484 4856 
L 1984 4856 
z
" id="DejaVuSans-28" transform="scale(0.015625)"/>
       <path d="M 2906 2969 
L 2906 4863 
L 3481 4863 
L 3481 0 
L 2906 0 
L 2906 525 
Q 2725 213 2448 61 
Q 2172 -91 1784 -91 
Q 1150 -91 751 415 
Q 353 922 353 1747 
Q 353 2572 751 3078 
Q 1150 3584 1784 3584 
Q 2172 3584 2448 3432 
Q 2725 3281 2906 2969 
z
M 947 1747 
Q 947 1113 1208 752 
Q 1469 391 1925 391 
Q 2381 391 2643 752 
Q 2906 1113 2906 1747 
Q 2906 2381 2643 2742 
Q 2381 3103 1925 3103 
Q 1469 3103 1208 2742 
Q 947 2381 947 1747 
z
" id="DejaVuSans-64" transform="scale(0.015625)"/>
       <path d="M 513 4856 
L 1013 4856 
Q 1481 4119 1714 3412 
Q 1947 2706 1947 2009 
Q 1947 1309 1714 600 
Q 1481 -109 1013 -844 
L 513 -844 
Q 928 -128 1133 580 
Q 1338 1288 1338 2009 
Q 1338 2731 1133 3434 
Q 928 4138 513 4856 
z
" id="DejaVuSans-29" transform="scale(0.015625)"/>
      </defs>
      <use xlink:href="#DejaVuSans-41"/>
      <use x="68.408203" xlink:href="#DejaVuSans-6e"/>
      <use x="131.787109" xlink:href="#DejaVuSans-67"/>
      <use x="195.263672" xlink:href="#DejaVuSans-6c"/>
      <use x="223.046875" xlink:href="#DejaVuSans-65"/>
      <use x="284.570312" xlink:href="#DejaVuSans-20"/>
      <use x="316.357422" xlink:href="#DejaVuSans-77"/>
      <use x="398.144531" xlink:href="#DejaVuSans-69"/>
      <use x="425.927734" xlink:href="#DejaVuSans-74"/>
      <use x="465.136719" xlink:href="#DejaVuSans-68"/>
      <use x="528.515625" xlink:href="#DejaVuSans-20"/>
      <use x="560.302734" xlink:href="#DejaVuSans-6e"/>
      <use x="623.681641" xlink:href="#DejaVuSans-6f"/>
      <use x="684.863281" xlink:href="#DejaVuSans-72"/>
      <use x="724.226562" xlink:href="#DejaVuSans-6d"/>
      <use x="821.638672" xlink:href="#DejaVuSans-61"/>
      <use x="882.917969" xlink:href="#DejaVuSans-6c"/>
      <use x="910.701172" xlink:href="#DejaVuSans-20"/>
      <use x="942.488281" xlink:href="#DejaVuSans-28"/>
      <use x="981.501953" xlink:href="#DejaVuSans-72"/>
      <use x="1022.615234" xlink:href="#DejaVuSans-61"/>
      <use x="1083.894531" xlink:href="#DejaVuSans-64"/>
      <use x="1147.371094" xlink:href="#DejaVuSans-29"/>
     </g>
    </g>
   </g>
   <g id="matplotlib.axis_2">
    <g id="ytick_1">
     <g id="line2d_10">
      <defs>
       <path d="M 0 0 
L -3.5 0 
" id="mf46e348079" style="stroke:#000000;stroke-width:0.8;"/>
      </defs>
      <g>
       <use style="stroke:#000000;stroke-width:0.8;" x="43.78125" xlink:href="#mf46e348079" y="273.312"/>
      </g>
     </g>
     <g id="text_11">
      <!-- 0.0 -->
      <g transform="translate(20.878125 277.111219)scale(0.1 -0.1)">
       <use xlink:href="#DejaVuSans-30"/>
       <use x="63.623047" xlink:href="#DejaVuSans-2e"/>
       <use x="95.410156" xlink:href="#DejaVuSans-30"/>
      </g>
     </g>
    </g>
    <g id="ytick_2">
     <g id="line2d_11">
      <g>
       <use style="stroke:#000000;stroke-width:0.8;" x="43.78125" xlink:href="#mf46e348079" y="227.697226"/>
      </g>
     </g>
     <g id="text_12">
      <!-- 0.2 -->
      <g transform="translate(20.878125 231.496444)scale(0.1 -0.1)">
       <use xlink:href="#DejaVuSans-30"/>
       <use x="63.623047" xlink:href="#DejaVuSans-2e"/>
       <use x="95.410156" xlink:href="#DejaVuSans-32"/>
      </g>
     </g>
    </g>
    <g id="ytick_3">
     <g id="line2d_12">
      <g>
       <use style="stroke:#000000;stroke-width:0.8;" x="43.78125" xlink:href="#mf46e348079" y="182.082451"/>
      </g>
     </g>
     <g id="text_13">
      <!-- 0.4 -->
      <g transform="translate(20.878125 185.88167)scale(0.1 -0.1)">
       <use xlink:href="#DejaVuSans-30"/>
       <use x="63.623047" xlink:href="#DejaVuSans-2e"/>
       <use x="95.410156" xlink:href="#DejaVuSans-34"/>
      </g>
     </g>
    </g>
    <g id="ytick_4">
     <g id="line2d_13">
      <g>
       <use style="stroke:#000000;stroke-width:0.8;" x="43.78125" xlink:href="#mf46e348079" y="136.467677"/>
      </g>
     </g>
     <g id="text_14">
      <!-- 0.6 -->
      <g transform="translate(20.878125 140.266896)scale(0.1 -0.1)">
       <use xlink:href="#DejaVuSans-30"/>
       <use x="63.623047" xlink:href="#DejaVuSans-2e"/>
       <use x="95.410156" xlink:href="#DejaVuSans-36"/>
      </g>
     </g>
    </g>
    <g id="ytick_5">
     <g id="line2d_14">
      <g>
       <use style="stroke:#000000;stroke-width:0.8;" x="43.78125" xlink:href="#mf46e348079" y="90.852903"/>
      </g>
     </g>
     <g id="text_15">
      <!-- 0.8 -->
      <g transform="translate(20.878125 94.652122)scale(0.1 -0.1)">
       <use xlink:href="#DejaVuSans-30"/>
       <use x="63.623047" xlink:href="#DejaVuSans-2e"/>
       <use x="95.410156" xlink:href="#DejaVuSans-38"/>
      </g>
     </g>
    </g>
    <g id="ytick_6">
     <g id="line2d_15">
      <g>
       <use style="stroke:#000000;stroke-width:0.8;" x="43.78125" xlink:href="#mf46e348079" y="45.238128"/>
      </g>
     </g>
     <g id="text_16">
      <!-- 1.0 -->
      <g transform="translate(20.878125 49.037347)scale(0.1 -0.1)">
       <use xlink:href="#DejaVuSans-31"/>
       <use x="63.623047" xlink:href="#DejaVuSans-2e"/>
       <use x="95.410156" xlink:href="#DejaVuSans-30"/>
      </g>
     </g>
    </g>
    <g id="text_17">
     <!-- Probability density -->
     <g transform="translate(14.798438 186.606781)rotate(-90)scale(0.1 -0.1)">
      <defs>
       <path d="M 1259 4147 
L 1259 2394 
L 2053 2394 
Q 2494 2394 2734 2622 
Q 2975 2850 2975 3272 
Q 2975 3691 2734 3919 
Q 2494 4147 2053 4147 
L 1259 4147 
z
M 628 4666 
L 2053 4666 
Q 2838 4666 3239 4311 
Q 3641 3956 3641 3272 
Q 3641 2581 3239 2228 
Q 2838 1875 2053 1875 
L 1259 1875 
L 1259 0 
L 628 0 
L 628 4666 
z
" id="DejaVuSans-50" transform="scale(0.015625)"/>
       <path d="M 3116 1747 
Q 3116 2381 2855 2742 
Q 2594 3103 2138 3103 
Q 1681 3103 1420 2742 
Q 1159 2381 1159 1747 
Q 1159 1113 1420 752 
Q 1681 391 2138 391 
Q 2594 391 2855 752 
Q 3116 1113 3116 1747 
z
M 1159 2969 
Q 1341 3281 1617 3432 
Q 1894 3584 2278 3584 
Q 2916 3584 3314 3078 
Q 3713 2572 3713 1747 
Q 3713 922 3314 415 
Q 2916 -91 2278 -91 
Q 1894 -91 1617 61 
Q 1341 213 1159 525 
L 1159 0 
L 581 0 
L 581 4863 
L 1159 4863 
L 1159 2969 
z
" id="DejaVuSans-62" transform="scale(0.015625)"/>
       <path d="M 2059 -325 
Q 1816 -950 1584 -1140 
Q 1353 -1331 966 -1331 
L 506 -1331 
L 506 -850 
L 844 -850 
Q 1081 -850 1212 -737 
Q 1344 -625 1503 -206 
L 1606 56 
L 191 3500 
L 800 3500 
L 1894 763 
L 2988 3500 
L 3597 3500 
L 2059 -325 
z
" id="DejaVuSans-79" transform="scale(0.015625)"/>
       <path d="M 2834 3397 
L 2834 2853 
Q 2591 2978 2328 3040 
Q 2066 3103 1784 3103 
Q 1356 3103 1142 2972 
Q 928 2841 928 2578 
Q 928 2378 1081 2264 
Q 1234 2150 1697 2047 
L 1894 2003 
Q 2506 1872 2764 1633 
Q 3022 1394 3022 966 
Q 3022 478 2636 193 
Q 2250 -91 1575 -91 
Q 1294 -91 989 -36 
Q 684 19 347 128 
L 347 722 
Q 666 556 975 473 
Q 1284 391 1588 391 
Q 1994 391 2212 530 
Q 2431 669 2431 922 
Q 2431 1156 2273 1281 
Q 2116 1406 1581 1522 
L 1381 1569 
Q 847 1681 609 1914 
Q 372 2147 372 2553 
Q 372 3047 722 3315 
Q 1072 3584 1716 3584 
Q 2034 3584 2315 3537 
Q 2597 3491 2834 3397 
z
" id="DejaVuSans-73" transform="scale(0.015625)"/>
      </defs>
      <use xlink:href="#DejaVuSans-50"/>
      <use x="58.552734" xlink:href="#DejaVuSans-72"/>
      <use x="97.416016" xlink:href="#DejaVuSans-6f"/>
      <use x="158.597656" xlink:href="#DejaVuSans-62"/>
      <use x="222.074219" xlink:href="#DejaVuSans-61"/>
      <use x="283.353516" xlink:href="#DejaVuSans-62"/>
      <use x="346.830078" xlink:href="#DejaVuSans-69"/>
      <use x="374.613281" xlink:href="#DejaVuSans-6c"/>
      <use x="402.396484" xlink:href="#DejaVuSans-69"/>
      <use x="430.179688" xlink:href="#DejaVuSans-74"/>
      <use x="469.388672" xlink:href="#DejaVuSans-79"/>
      <use x="528.568359" xlink:href="#DejaVuSans-20"/>
      <use x="560.355469" xlink:href="#DejaVuSans-64"/>
      <use x="623.832031" xlink:href="#DejaVuSans-65"/>
      <use x="685.355469" xlink:href="#DejaVuSans-6e"/>
      <use x="748.734375" xlink:href="#DejaVuSans-73"/>
      <use x="800.833984" xlink:href="#DejaVuSans-69"/>
      <use x="828.617188" xlink:href="#DejaVuSans-74"/>
      <use x="867.826172" xlink:href="#DejaVuSans-79"/>
     </g>
    </g>
   </g>
   <g id="line2d_16">
    <path clip-path="url(#p76be8f1bd9)" d="M 60.013977 273.312 
L 79.837728 229.828657 
L 90.237073 207.556207 
L 99.01152 189.27239 
L 106.811029 173.524433 
L 113.960578 159.585776 
L 120.460169 147.384742 
L 126.63478 136.254283 
L 132.484411 126.160235 
L 138.009063 117.059254 
L 143.208736 108.901023 
L 148.408408 101.158939 
L 153.283101 94.296124 
L 157.832814 88.249853 
L 162.382528 82.562233 
L 166.932241 77.244287 
L 171.156975 72.646223 
L 175.381709 68.383486 
L 179.281463 64.752448 
L 183.181217 61.418379 
L 187.080972 58.386026 
L 190.655746 55.875112 
L 194.230521 53.624361 
L 197.805296 51.636465 
L 201.380071 49.913803 
L 204.629866 48.579648 
L 207.879661 47.467721 
L 211.129456 46.579121 
L 214.379252 45.914728 
L 217.629047 45.475198 
L 220.878842 45.260965 
L 224.128637 45.272242 
L 227.378433 45.509018 
L 230.628228 45.971058 
L 233.878023 46.657905 
L 237.127818 47.56888 
L 240.377614 48.703083 
L 243.627409 50.059392 
L 247.202184 51.806256 
L 250.776958 53.818151 
L 254.351733 56.09267 
L 257.926508 58.62709 
L 261.501283 61.418379 
L 265.401037 64.752448 
L 269.300791 68.383486 
L 273.200546 72.306321 
L 277.425279 76.878856 
L 281.650013 81.779645 
L 286.199727 87.415113 
L 290.74944 93.41085 
L 295.624133 100.221427 
L 300.498826 107.417078 
L 305.698498 115.498823 
L 311.22315 124.52287 
L 316.747802 133.972059 
L 322.597433 144.410448 
L 328.772044 155.876013 
L 335.596614 169.03439 
L 342.746164 183.305953 
L 350.870652 200.042506 
L 359.970079 219.319796 
L 371.019383 243.275746 
L 384.668523 273.312 
L 384.668523 273.312 
" style="fill:none;stroke:#ff7f0e;stroke-linecap:square;stroke-width:1.5;"/>
   </g>
   <g id="patch_203">
    <path d="M 43.78125 273.312 
L 43.78125 7.2 
" style="fill:none;stroke:#000000;stroke-linecap:square;stroke-linejoin:miter;stroke-width:0.8;"/>
   </g>
   <g id="patch_204">
    <path d="M 400.90125 273.312 
L 400.90125 7.2 
" style="fill:none;stroke:#000000;stroke-linecap:square;stroke-linejoin:miter;stroke-width:0.8;"/>
   </g>
   <g id="patch_205">
    <path d="M 43.78125 273.312 
L 400.90125 273.312 
" style="fill:none;stroke:#000000;stroke-linecap:square;stroke-linejoin:miter;stroke-width:0.8;"/>
   </g>
   <g id="patch_206">
    <path d="M 43.78125 7.2 
L 400.90125 7.2 
" style="fill:none;stroke:#000000;stroke-linecap:square;stroke-linejoin:miter;stroke-width:0.8;"/>
   </g>
  </g>
 </g>
 <defs>
  <clipPath id="p76be8f1bd9">
   <rect height="266.112" width="357.12" x="43.78125" y="7.2"/>
  </clipPath>
 </defs>
</svg>
