<?xml version="1.0" encoding="utf-8" standalone="no"?>
<!DOCTYPE svg PUBLIC "-//W3C//DTD SVG 1.1//EN"
  "http://www.w3.org/Graphics/SVG/1.1/DTD/svg11.dtd">
<svg height="310.86825pt" version="1.1" viewBox="0 0 408.10125 310.86825" width="408.10125pt" xmlns="http://www.w3.org/2000/svg" xmlns:xlink="http://www.w3.org/1999/xlink">
 <metadata>
  <rdf:RDF xmlns:cc="http://creativecommons.org/ns#" xmlns:dc="http://purl.org/dc/elements/1.1/" xmlns:rdf="http://www.w3.org/1999/02/22-rdf-syntax-ns#">
   <cc:Work>
    <dc:type rdf:resource="http://purl.org/dc/dcmitype/StillImage"/>
    <dc:date>2021-07-04T01:18:38.020146</dc:date>
    <dc:format>image/svg+xml</dc:format>
    <dc:creator>
     <cc:Agent>
      <dc:title>Matplotlib v3.4.2, https://matplotlib.org/</dc:title>
     </cc:Agent>
    </dc:creator>
   </cc:Work>
  </rdf:RDF>
 </metadata>
 <defs>
  <style type="text/css">*{stroke-linecap:butt;stroke-linejoin:round;}</style>
 </defs>
 <g id="figure_1">
  <g id="patch_1">
   <path d="M 0 310.86825 
L 408.10125 310.86825 
L 408.10125 0 
L 0 0 
z
" style="fill:#ffffff;"/>
  </g>
  <g id="axes_1">
   <g id="patch_2">
    <path d="M 43.78125 273.312 
L 400.90125 273.312 
L 400.90125 7.2 
L 43.78125 7.2 
z
" style="fill:#ffffff;"/>
   </g>
   <g id="patch_3">
    <path clip-path="url(#p6a7c32d310)" d="M 60.474903 273.312 
L 62.095861 273.312 
L 62.095861 272.17804 
L 60.474903 272.17804 
z
" style="fill:#1f77b4;"/>
   </g>
   <g id="patch_4">
    <path clip-path="url(#p6a7c32d310)" d="M 62.095861 273.312 
L 63.716819 273.312 
L 63.716819 272.17804 
L 62.095861 272.17804 
z
" style="fill:#1f77b4;"/>
   </g>
   <g id="patch_5">
    <path clip-path="url(#p6a7c32d310)" d="M 63.716819 273.312 
L 65.337777 273.312 
L 65.337777 271.044081 
L 63.716819 271.044081 
z
" style="fill:#1f77b4;"/>
   </g>
   <g id="patch_6">
    <path clip-path="url(#p6a7c32d310)" d="M 65.337777 273.312 
L 66.958735 273.312 
L 66.958735 268.776161 
L 65.337777 268.776161 
z
" style="fill:#1f77b4;"/>
   </g>
   <g id="patch_7">
    <path clip-path="url(#p6a7c32d310)" d="M 66.958735 273.312 
L 68.579693 273.312 
L 68.579693 270.477101 
L 66.958735 270.477101 
z
" style="fill:#1f77b4;"/>
   </g>
   <g id="patch_8">
    <path clip-path="url(#p6a7c32d310)" d="M 68.579693 273.312 
L 70.200651 273.312 
L 70.200651 267.642201 
L 68.579693 267.642201 
z
" style="fill:#1f77b4;"/>
   </g>
   <g id="patch_9">
    <path clip-path="url(#p6a7c32d310)" d="M 70.200651 273.312 
L 71.821609 273.312 
L 71.821609 267.075221 
L 70.200651 267.075221 
z
" style="fill:#1f77b4;"/>
   </g>
   <g id="patch_10">
    <path clip-path="url(#p6a7c32d310)" d="M 71.821609 273.312 
L 73.442567 273.312 
L 73.442567 265.374282 
L 71.821609 265.374282 
z
" style="fill:#1f77b4;"/>
   </g>
   <g id="patch_11">
    <path clip-path="url(#p6a7c32d310)" d="M 73.442567 273.312 
L 75.063525 273.312 
L 75.063525 264.240322 
L 73.442567 264.240322 
z
" style="fill:#1f77b4;"/>
   </g>
   <g id="patch_12">
    <path clip-path="url(#p6a7c32d310)" d="M 75.063525 273.312 
L 76.684483 273.312 
L 76.684483 260.838443 
L 75.063525 260.838443 
z
" style="fill:#1f77b4;"/>
   </g>
   <g id="patch_13">
    <path clip-path="url(#p6a7c32d310)" d="M 76.684483 273.312 
L 78.305441 273.312 
L 78.305441 263.673342 
L 76.684483 263.673342 
z
" style="fill:#1f77b4;"/>
   </g>
   <g id="patch_14">
    <path clip-path="url(#p6a7c32d310)" d="M 78.305441 273.312 
L 79.926399 273.312 
L 79.926399 259.137503 
L 78.305441 259.137503 
z
" style="fill:#1f77b4;"/>
   </g>
   <g id="patch_15">
    <path clip-path="url(#p6a7c32d310)" d="M 79.926399 273.312 
L 81.547357 273.312 
L 81.547357 256.302604 
L 79.926399 256.302604 
z
" style="fill:#1f77b4;"/>
   </g>
   <g id="patch_16">
    <path clip-path="url(#p6a7c32d310)" d="M 81.547357 273.312 
L 83.168315 273.312 
L 83.168315 262.539383 
L 81.547357 262.539383 
z
" style="fill:#1f77b4;"/>
   </g>
   <g id="patch_17">
    <path clip-path="url(#p6a7c32d310)" d="M 83.168315 273.312 
L 84.789273 273.312 
L 84.789273 259.137503 
L 83.168315 259.137503 
z
" style="fill:#1f77b4;"/>
   </g>
   <g id="patch_18">
    <path clip-path="url(#p6a7c32d310)" d="M 84.789273 273.312 
L 86.410231 273.312 
L 86.410231 254.034685 
L 84.789273 254.034685 
z
" style="fill:#1f77b4;"/>
   </g>
   <g id="patch_19">
    <path clip-path="url(#p6a7c32d310)" d="M 86.410231 273.312 
L 88.031189 273.312 
L 88.031189 255.168644 
L 86.410231 255.168644 
z
" style="fill:#1f77b4;"/>
   </g>
   <g id="patch_20">
    <path clip-path="url(#p6a7c32d310)" d="M 88.031189 273.312 
L 89.652147 273.312 
L 89.652147 248.931866 
L 88.031189 248.931866 
z
" style="fill:#1f77b4;"/>
   </g>
   <g id="patch_21">
    <path clip-path="url(#p6a7c32d310)" d="M 89.652147 273.312 
L 91.273105 273.312 
L 91.273105 248.364886 
L 89.652147 248.364886 
z
" style="fill:#1f77b4;"/>
   </g>
   <g id="patch_22">
    <path clip-path="url(#p6a7c32d310)" d="M 91.273105 273.312 
L 92.894063 273.312 
L 92.894063 249.498846 
L 91.273105 249.498846 
z
" style="fill:#1f77b4;"/>
   </g>
   <g id="patch_23">
    <path clip-path="url(#p6a7c32d310)" d="M 92.894063 273.312 
L 94.515021 273.312 
L 94.515021 249.498846 
L 92.894063 249.498846 
z
" style="fill:#1f77b4;"/>
   </g>
   <g id="patch_24">
    <path clip-path="url(#p6a7c32d310)" d="M 94.515021 273.312 
L 96.135979 273.312 
L 96.135979 246.096966 
L 94.515021 246.096966 
z
" style="fill:#1f77b4;"/>
   </g>
   <g id="patch_25">
    <path clip-path="url(#p6a7c32d310)" d="M 96.135979 273.312 
L 97.756937 273.312 
L 97.756937 254.601664 
L 96.135979 254.601664 
z
" style="fill:#1f77b4;"/>
   </g>
   <g id="patch_26">
    <path clip-path="url(#p6a7c32d310)" d="M 97.756937 273.312 
L 99.377895 273.312 
L 99.377895 244.396027 
L 97.756937 244.396027 
z
" style="fill:#1f77b4;"/>
   </g>
   <g id="patch_27">
    <path clip-path="url(#p6a7c32d310)" d="M 99.377895 273.312 
L 100.998853 273.312 
L 100.998853 246.663946 
L 99.377895 246.663946 
z
" style="fill:#1f77b4;"/>
   </g>
   <g id="patch_28">
    <path clip-path="url(#p6a7c32d310)" d="M 100.998853 273.312 
L 102.619811 273.312 
L 102.619811 250.065826 
L 100.998853 250.065826 
z
" style="fill:#1f77b4;"/>
   </g>
   <g id="patch_29">
    <path clip-path="url(#p6a7c32d310)" d="M 102.619811 273.312 
L 104.240769 273.312 
L 104.240769 243.829047 
L 102.619811 243.829047 
z
" style="fill:#1f77b4;"/>
   </g>
   <g id="patch_30">
    <path clip-path="url(#p6a7c32d310)" d="M 104.240769 273.312 
L 105.861727 273.312 
L 105.861727 242.128107 
L 104.240769 242.128107 
z
" style="fill:#1f77b4;"/>
   </g>
   <g id="patch_31">
    <path clip-path="url(#p6a7c32d310)" d="M 105.861727 273.312 
L 107.482685 273.312 
L 107.482685 233.05643 
L 105.861727 233.05643 
z
" style="fill:#1f77b4;"/>
   </g>
   <g id="patch_32">
    <path clip-path="url(#p6a7c32d310)" d="M 107.482685 273.312 
L 109.103643 273.312 
L 109.103643 246.663946 
L 107.482685 246.663946 
z
" style="fill:#1f77b4;"/>
   </g>
   <g id="patch_33">
    <path clip-path="url(#p6a7c32d310)" d="M 109.103643 273.312 
L 110.724601 273.312 
L 110.724601 239.293208 
L 109.103643 239.293208 
z
" style="fill:#1f77b4;"/>
   </g>
   <g id="patch_34">
    <path clip-path="url(#p6a7c32d310)" d="M 110.724601 273.312 
L 112.345559 273.312 
L 112.345559 243.262067 
L 110.724601 243.262067 
z
" style="fill:#1f77b4;"/>
   </g>
   <g id="patch_35">
    <path clip-path="url(#p6a7c32d310)" d="M 112.345559 273.312 
L 113.966517 273.312 
L 113.966517 243.262067 
L 112.345559 243.262067 
z
" style="fill:#1f77b4;"/>
   </g>
   <g id="patch_36">
    <path clip-path="url(#p6a7c32d310)" d="M 113.966517 273.312 
L 115.587475 273.312 
L 115.587475 235.891329 
L 113.966517 235.891329 
z
" style="fill:#1f77b4;"/>
   </g>
   <g id="patch_37">
    <path clip-path="url(#p6a7c32d310)" d="M 115.587475 273.312 
L 117.208433 273.312 
L 117.208433 235.324349 
L 115.587475 235.324349 
z
" style="fill:#1f77b4;"/>
   </g>
   <g id="patch_38">
    <path clip-path="url(#p6a7c32d310)" d="M 117.208433 273.312 
L 118.829391 273.312 
L 118.829391 227.386631 
L 117.208433 227.386631 
z
" style="fill:#1f77b4;"/>
   </g>
   <g id="patch_39">
    <path clip-path="url(#p6a7c32d310)" d="M 118.829391 273.312 
L 120.450349 273.312 
L 120.450349 235.324349 
L 118.829391 235.324349 
z
" style="fill:#1f77b4;"/>
   </g>
   <g id="patch_40">
    <path clip-path="url(#p6a7c32d310)" d="M 120.450349 273.312 
L 122.071307 273.312 
L 122.071307 237.592268 
L 120.450349 237.592268 
z
" style="fill:#1f77b4;"/>
   </g>
   <g id="patch_41">
    <path clip-path="url(#p6a7c32d310)" d="M 122.071307 273.312 
L 123.692265 273.312 
L 123.692265 217.180993 
L 122.071307 217.180993 
z
" style="fill:#1f77b4;"/>
   </g>
   <g id="patch_42">
    <path clip-path="url(#p6a7c32d310)" d="M 123.692265 273.312 
L 125.313223 273.312 
L 125.313223 228.520591 
L 123.692265 228.520591 
z
" style="fill:#1f77b4;"/>
   </g>
   <g id="patch_43">
    <path clip-path="url(#p6a7c32d310)" d="M 125.313223 273.312 
L 126.934181 273.312 
L 126.934181 225.118711 
L 125.313223 225.118711 
z
" style="fill:#1f77b4;"/>
   </g>
   <g id="patch_44">
    <path clip-path="url(#p6a7c32d310)" d="M 126.934181 273.312 
L 128.555139 273.312 
L 128.555139 234.190389 
L 126.934181 234.190389 
z
" style="fill:#1f77b4;"/>
   </g>
   <g id="patch_45">
    <path clip-path="url(#p6a7c32d310)" d="M 128.555139 273.312 
L 130.176097 273.312 
L 130.176097 231.92247 
L 128.555139 231.92247 
z
" style="fill:#1f77b4;"/>
   </g>
   <g id="patch_46">
    <path clip-path="url(#p6a7c32d310)" d="M 130.176097 273.312 
L 131.797055 273.312 
L 131.797055 226.819651 
L 130.176097 226.819651 
z
" style="fill:#1f77b4;"/>
   </g>
   <g id="patch_47">
    <path clip-path="url(#p6a7c32d310)" d="M 131.797055 273.312 
L 133.418013 273.312 
L 133.418013 217.747973 
L 131.797055 217.747973 
z
" style="fill:#1f77b4;"/>
   </g>
   <g id="patch_48">
    <path clip-path="url(#p6a7c32d310)" d="M 133.418013 273.312 
L 135.038971 273.312 
L 135.038971 218.314953 
L 133.418013 218.314953 
z
" style="fill:#1f77b4;"/>
   </g>
   <g id="patch_49">
    <path clip-path="url(#p6a7c32d310)" d="M 135.038971 273.312 
L 136.659929 273.312 
L 136.659929 220.582872 
L 135.038971 220.582872 
z
" style="fill:#1f77b4;"/>
   </g>
   <g id="patch_50">
    <path clip-path="url(#p6a7c32d310)" d="M 136.659929 273.312 
L 138.280887 273.312 
L 138.280887 214.913074 
L 136.659929 214.913074 
z
" style="fill:#1f77b4;"/>
   </g>
   <g id="patch_51">
    <path clip-path="url(#p6a7c32d310)" d="M 138.280887 273.312 
L 139.901845 273.312 
L 139.901845 229.65455 
L 138.280887 229.65455 
z
" style="fill:#1f77b4;"/>
   </g>
   <g id="patch_52">
    <path clip-path="url(#p6a7c32d310)" d="M 139.901845 273.312 
L 141.522803 273.312 
L 141.522803 214.346094 
L 139.901845 214.346094 
z
" style="fill:#1f77b4;"/>
   </g>
   <g id="patch_53">
    <path clip-path="url(#p6a7c32d310)" d="M 141.522803 273.312 
L 143.143761 273.312 
L 143.143761 221.149852 
L 141.522803 221.149852 
z
" style="fill:#1f77b4;"/>
   </g>
   <g id="patch_54">
    <path clip-path="url(#p6a7c32d310)" d="M 143.143761 273.312 
L 144.764719 273.312 
L 144.764719 218.314953 
L 143.143761 218.314953 
z
" style="fill:#1f77b4;"/>
   </g>
   <g id="patch_55">
    <path clip-path="url(#p6a7c32d310)" d="M 144.764719 273.312 
L 146.385677 273.312 
L 146.385677 221.149852 
L 144.764719 221.149852 
z
" style="fill:#1f77b4;"/>
   </g>
   <g id="patch_56">
    <path clip-path="url(#p6a7c32d310)" d="M 146.385677 273.312 
L 148.006635 273.312 
L 148.006635 210.944215 
L 146.385677 210.944215 
z
" style="fill:#1f77b4;"/>
   </g>
   <g id="patch_57">
    <path clip-path="url(#p6a7c32d310)" d="M 148.006635 273.312 
L 149.627593 273.312 
L 149.627593 208.109315 
L 148.006635 208.109315 
z
" style="fill:#1f77b4;"/>
   </g>
   <g id="patch_58">
    <path clip-path="url(#p6a7c32d310)" d="M 149.627593 273.312 
L 151.248551 273.312 
L 151.248551 204.140456 
L 149.627593 204.140456 
z
" style="fill:#1f77b4;"/>
   </g>
   <g id="patch_59">
    <path clip-path="url(#p6a7c32d310)" d="M 151.248551 273.312 
L 152.869509 273.312 
L 152.869509 210.377235 
L 151.248551 210.377235 
z
" style="fill:#1f77b4;"/>
   </g>
   <g id="patch_60">
    <path clip-path="url(#p6a7c32d310)" d="M 152.869509 273.312 
L 154.490467 273.312 
L 154.490467 211.511195 
L 152.869509 211.511195 
z
" style="fill:#1f77b4;"/>
   </g>
   <g id="patch_61">
    <path clip-path="url(#p6a7c32d310)" d="M 154.490467 273.312 
L 156.111424 273.312 
L 156.111424 222.850792 
L 154.490467 222.850792 
z
" style="fill:#1f77b4;"/>
   </g>
   <g id="patch_62">
    <path clip-path="url(#p6a7c32d310)" d="M 156.111424 273.312 
L 157.732382 273.312 
L 157.732382 201.872537 
L 156.111424 201.872537 
z
" style="fill:#1f77b4;"/>
   </g>
   <g id="patch_63">
    <path clip-path="url(#p6a7c32d310)" d="M 157.732382 273.312 
L 159.35334 273.312 
L 159.35334 215.480054 
L 157.732382 215.480054 
z
" style="fill:#1f77b4;"/>
   </g>
   <g id="patch_64">
    <path clip-path="url(#p6a7c32d310)" d="M 159.35334 273.312 
L 160.974298 273.312 
L 160.974298 206.975356 
L 159.35334 206.975356 
z
" style="fill:#1f77b4;"/>
   </g>
   <g id="patch_65">
    <path clip-path="url(#p6a7c32d310)" d="M 160.974298 273.312 
L 162.595256 273.312 
L 162.595256 196.202738 
L 160.974298 196.202738 
z
" style="fill:#1f77b4;"/>
   </g>
   <g id="patch_66">
    <path clip-path="url(#p6a7c32d310)" d="M 162.595256 273.312 
L 164.216214 273.312 
L 164.216214 187.69804 
L 162.595256 187.69804 
z
" style="fill:#1f77b4;"/>
   </g>
   <g id="patch_67">
    <path clip-path="url(#p6a7c32d310)" d="M 164.216214 273.312 
L 165.837172 273.312 
L 165.837172 199.037638 
L 164.216214 199.037638 
z
" style="fill:#1f77b4;"/>
   </g>
   <g id="patch_68">
    <path clip-path="url(#p6a7c32d310)" d="M 165.837172 273.312 
L 167.45813 273.312 
L 167.45813 202.439517 
L 165.837172 202.439517 
z
" style="fill:#1f77b4;"/>
   </g>
   <g id="patch_69">
    <path clip-path="url(#p6a7c32d310)" d="M 167.45813 273.312 
L 169.079088 273.312 
L 169.079088 199.604617 
L 167.45813 199.604617 
z
" style="fill:#1f77b4;"/>
   </g>
   <g id="patch_70">
    <path clip-path="url(#p6a7c32d310)" d="M 169.079088 273.312 
L 170.700046 273.312 
L 170.700046 201.305557 
L 169.079088 201.305557 
z
" style="fill:#1f77b4;"/>
   </g>
   <g id="patch_71">
    <path clip-path="url(#p6a7c32d310)" d="M 170.700046 273.312 
L 172.321004 273.312 
L 172.321004 193.934819 
L 170.700046 193.934819 
z
" style="fill:#1f77b4;"/>
   </g>
   <g id="patch_72">
    <path clip-path="url(#p6a7c32d310)" d="M 172.321004 273.312 
L 173.941962 273.312 
L 173.941962 191.099919 
L 172.321004 191.099919 
z
" style="fill:#1f77b4;"/>
   </g>
   <g id="patch_73">
    <path clip-path="url(#p6a7c32d310)" d="M 173.941962 273.312 
L 175.56292 273.312 
L 175.56292 193.367839 
L 173.941962 193.367839 
z
" style="fill:#1f77b4;"/>
   </g>
   <g id="patch_74">
    <path clip-path="url(#p6a7c32d310)" d="M 175.56292 273.312 
L 177.183878 273.312 
L 177.183878 201.872537 
L 175.56292 201.872537 
z
" style="fill:#1f77b4;"/>
   </g>
   <g id="patch_75">
    <path clip-path="url(#p6a7c32d310)" d="M 177.183878 273.312 
L 178.804836 273.312 
L 178.804836 197.903678 
L 177.183878 197.903678 
z
" style="fill:#1f77b4;"/>
   </g>
   <g id="patch_76">
    <path clip-path="url(#p6a7c32d310)" d="M 178.804836 273.312 
L 180.425794 273.312 
L 180.425794 177.492403 
L 178.804836 177.492403 
z
" style="fill:#1f77b4;"/>
   </g>
   <g id="patch_77">
    <path clip-path="url(#p6a7c32d310)" d="M 180.425794 273.312 
L 182.046752 273.312 
L 182.046752 187.69804 
L 180.425794 187.69804 
z
" style="fill:#1f77b4;"/>
   </g>
   <g id="patch_78">
    <path clip-path="url(#p6a7c32d310)" d="M 182.046752 273.312 
L 183.66771 273.312 
L 183.66771 168.987705 
L 182.046752 168.987705 
z
" style="fill:#1f77b4;"/>
   </g>
   <g id="patch_79">
    <path clip-path="url(#p6a7c32d310)" d="M 183.66771 273.312 
L 185.288668 273.312 
L 185.288668 198.470658 
L 183.66771 198.470658 
z
" style="fill:#1f77b4;"/>
   </g>
   <g id="patch_80">
    <path clip-path="url(#p6a7c32d310)" d="M 185.288668 273.312 
L 186.909626 273.312 
L 186.909626 179.193342 
L 185.288668 179.193342 
z
" style="fill:#1f77b4;"/>
   </g>
   <g id="patch_81">
    <path clip-path="url(#p6a7c32d310)" d="M 186.909626 273.312 
L 188.530584 273.312 
L 188.530584 179.760322 
L 186.909626 179.760322 
z
" style="fill:#1f77b4;"/>
   </g>
   <g id="patch_82">
    <path clip-path="url(#p6a7c32d310)" d="M 188.530584 273.312 
L 190.151542 273.312 
L 190.151542 184.296161 
L 188.530584 184.296161 
z
" style="fill:#1f77b4;"/>
   </g>
   <g id="patch_83">
    <path clip-path="url(#p6a7c32d310)" d="M 190.151542 273.312 
L 191.7725 273.312 
L 191.7725 169.554685 
L 190.151542 169.554685 
z
" style="fill:#1f77b4;"/>
   </g>
   <g id="patch_84">
    <path clip-path="url(#p6a7c32d310)" d="M 191.7725 273.312 
L 193.393458 273.312 
L 193.393458 159.349047 
L 191.7725 159.349047 
z
" style="fill:#1f77b4;"/>
   </g>
   <g id="patch_85">
    <path clip-path="url(#p6a7c32d310)" d="M 193.393458 273.312 
L 195.014416 273.312 
L 195.014416 174.090523 
L 193.393458 174.090523 
z
" style="fill:#1f77b4;"/>
   </g>
   <g id="patch_86">
    <path clip-path="url(#p6a7c32d310)" d="M 195.014416 273.312 
L 196.635374 273.312 
L 196.635374 183.162201 
L 195.014416 183.162201 
z
" style="fill:#1f77b4;"/>
   </g>
   <g id="patch_87">
    <path clip-path="url(#p6a7c32d310)" d="M 196.635374 273.312 
L 198.256332 273.312 
L 198.256332 172.956564 
L 196.635374 172.956564 
z
" style="fill:#1f77b4;"/>
   </g>
   <g id="patch_88">
    <path clip-path="url(#p6a7c32d310)" d="M 198.256332 273.312 
L 199.87729 273.312 
L 199.87729 178.059383 
L 198.256332 178.059383 
z
" style="fill:#1f77b4;"/>
   </g>
   <g id="patch_89">
    <path clip-path="url(#p6a7c32d310)" d="M 199.87729 273.312 
L 201.498248 273.312 
L 201.498248 182.028242 
L 199.87729 182.028242 
z
" style="fill:#1f77b4;"/>
   </g>
   <g id="patch_90">
    <path clip-path="url(#p6a7c32d310)" d="M 201.498248 273.312 
L 203.119206 273.312 
L 203.119206 179.193342 
L 201.498248 179.193342 
z
" style="fill:#1f77b4;"/>
   </g>
   <g id="patch_91">
    <path clip-path="url(#p6a7c32d310)" d="M 203.119206 273.312 
L 204.740164 273.312 
L 204.740164 169.554685 
L 203.119206 169.554685 
z
" style="fill:#1f77b4;"/>
   </g>
   <g id="patch_92">
    <path clip-path="url(#p6a7c32d310)" d="M 204.740164 273.312 
L 206.361122 273.312 
L 206.361122 168.987705 
L 204.740164 168.987705 
z
" style="fill:#1f77b4;"/>
   </g>
   <g id="patch_93">
    <path clip-path="url(#p6a7c32d310)" d="M 206.361122 273.312 
L 207.98208 273.312 
L 207.98208 167.286765 
L 206.361122 167.286765 
z
" style="fill:#1f77b4;"/>
   </g>
   <g id="patch_94">
    <path clip-path="url(#p6a7c32d310)" d="M 207.98208 273.312 
L 209.603038 273.312 
L 209.603038 166.719785 
L 207.98208 166.719785 
z
" style="fill:#1f77b4;"/>
   </g>
   <g id="patch_95">
    <path clip-path="url(#p6a7c32d310)" d="M 209.603038 273.312 
L 211.223996 273.312 
L 211.223996 162.183946 
L 209.603038 162.183946 
z
" style="fill:#1f77b4;"/>
   </g>
   <g id="patch_96">
    <path clip-path="url(#p6a7c32d310)" d="M 211.223996 273.312 
L 212.844954 273.312 
L 212.844954 168.987705 
L 211.223996 168.987705 
z
" style="fill:#1f77b4;"/>
   </g>
   <g id="patch_97">
    <path clip-path="url(#p6a7c32d310)" d="M 212.844954 273.312 
L 214.465912 273.312 
L 214.465912 172.389584 
L 212.844954 172.389584 
z
" style="fill:#1f77b4;"/>
   </g>
   <g id="patch_98">
    <path clip-path="url(#p6a7c32d310)" d="M 214.465912 273.312 
L 216.08687 273.312 
L 216.08687 161.616966 
L 214.465912 161.616966 
z
" style="fill:#1f77b4;"/>
   </g>
   <g id="patch_99">
    <path clip-path="url(#p6a7c32d310)" d="M 216.08687 273.312 
L 217.707828 273.312 
L 217.707828 165.018846 
L 216.08687 165.018846 
z
" style="fill:#1f77b4;"/>
   </g>
   <g id="patch_100">
    <path clip-path="url(#p6a7c32d310)" d="M 217.707828 273.312 
L 219.328786 273.312 
L 219.328786 161.049987 
L 217.707828 161.049987 
z
" style="fill:#1f77b4;"/>
   </g>
   <g id="patch_101">
    <path clip-path="url(#p6a7c32d310)" d="M 219.328786 273.312 
L 220.949744 273.312 
L 220.949744 180.327302 
L 219.328786 180.327302 
z
" style="fill:#1f77b4;"/>
   </g>
   <g id="patch_102">
    <path clip-path="url(#p6a7c32d310)" d="M 220.949744 273.312 
L 222.570702 273.312 
L 222.570702 151.978309 
L 220.949744 151.978309 
z
" style="fill:#1f77b4;"/>
   </g>
   <g id="patch_103">
    <path clip-path="url(#p6a7c32d310)" d="M 222.570702 273.312 
L 224.19166 273.312 
L 224.19166 153.112268 
L 222.570702 153.112268 
z
" style="fill:#1f77b4;"/>
   </g>
   <g id="patch_104">
    <path clip-path="url(#p6a7c32d310)" d="M 224.19166 273.312 
L 225.812618 273.312 
L 225.812618 172.389584 
L 224.19166 172.389584 
z
" style="fill:#1f77b4;"/>
   </g>
   <g id="patch_105">
    <path clip-path="url(#p6a7c32d310)" d="M 225.812618 273.312 
L 227.433576 273.312 
L 227.433576 172.956564 
L 225.812618 172.956564 
z
" style="fill:#1f77b4;"/>
   </g>
   <g id="patch_106">
    <path clip-path="url(#p6a7c32d310)" d="M 227.433576 273.312 
L 229.054534 273.312 
L 229.054534 167.286765 
L 227.433576 167.286765 
z
" style="fill:#1f77b4;"/>
   </g>
   <g id="patch_107">
    <path clip-path="url(#p6a7c32d310)" d="M 229.054534 273.312 
L 230.675492 273.312 
L 230.675492 151.978309 
L 229.054534 151.978309 
z
" style="fill:#1f77b4;"/>
   </g>
   <g id="patch_108">
    <path clip-path="url(#p6a7c32d310)" d="M 230.675492 273.312 
L 232.29645 273.312 
L 232.29645 176.358443 
L 230.675492 176.358443 
z
" style="fill:#1f77b4;"/>
   </g>
   <g id="patch_109">
    <path clip-path="url(#p6a7c32d310)" d="M 232.29645 273.312 
L 233.917408 273.312 
L 233.917408 155.380188 
L 232.29645 155.380188 
z
" style="fill:#1f77b4;"/>
   </g>
   <g id="patch_110">
    <path clip-path="url(#p6a7c32d310)" d="M 233.917408 273.312 
L 235.538366 273.312 
L 235.538366 146.87549 
L 233.917408 146.87549 
z
" style="fill:#1f77b4;"/>
   </g>
   <g id="patch_111">
    <path clip-path="url(#p6a7c32d310)" d="M 235.538366 273.312 
L 237.159324 273.312 
L 237.159324 142.339651 
L 235.538366 142.339651 
z
" style="fill:#1f77b4;"/>
   </g>
   <g id="patch_112">
    <path clip-path="url(#p6a7c32d310)" d="M 237.159324 273.312 
L 238.780282 273.312 
L 238.780282 134.968913 
L 237.159324 134.968913 
z
" style="fill:#1f77b4;"/>
   </g>
   <g id="patch_113">
    <path clip-path="url(#p6a7c32d310)" d="M 238.780282 273.312 
L 240.40124 273.312 
L 240.40124 151.978309 
L 238.780282 151.978309 
z
" style="fill:#1f77b4;"/>
   </g>
   <g id="patch_114">
    <path clip-path="url(#p6a7c32d310)" d="M 240.40124 273.312 
L 242.022198 273.312 
L 242.022198 154.246228 
L 240.40124 154.246228 
z
" style="fill:#1f77b4;"/>
   </g>
   <g id="patch_115">
    <path clip-path="url(#p6a7c32d310)" d="M 242.022198 273.312 
L 243.643156 273.312 
L 243.643156 148.57643 
L 242.022198 148.57643 
z
" style="fill:#1f77b4;"/>
   </g>
   <g id="patch_116">
    <path clip-path="url(#p6a7c32d310)" d="M 243.643156 273.312 
L 245.264114 273.312 
L 245.264114 150.277369 
L 243.643156 150.277369 
z
" style="fill:#1f77b4;"/>
   </g>
   <g id="patch_117">
    <path clip-path="url(#p6a7c32d310)" d="M 245.264114 273.312 
L 246.885072 273.312 
L 246.885072 147.44247 
L 245.264114 147.44247 
z
" style="fill:#1f77b4;"/>
   </g>
   <g id="patch_118">
    <path clip-path="url(#p6a7c32d310)" d="M 246.885072 273.312 
L 248.50603 273.312 
L 248.50603 133.834953 
L 246.885072 133.834953 
z
" style="fill:#1f77b4;"/>
   </g>
   <g id="patch_119">
    <path clip-path="url(#p6a7c32d310)" d="M 248.50603 273.312 
L 250.126988 273.312 
L 250.126988 137.236832 
L 248.50603 137.236832 
z
" style="fill:#1f77b4;"/>
   </g>
   <g id="patch_120">
    <path clip-path="url(#p6a7c32d310)" d="M 250.126988 273.312 
L 251.747946 273.312 
L 251.747946 138.370792 
L 250.126988 138.370792 
z
" style="fill:#1f77b4;"/>
   </g>
   <g id="patch_121">
    <path clip-path="url(#p6a7c32d310)" d="M 251.747946 273.312 
L 253.368904 273.312 
L 253.368904 119.093477 
L 251.747946 119.093477 
z
" style="fill:#1f77b4;"/>
   </g>
   <g id="patch_122">
    <path clip-path="url(#p6a7c32d310)" d="M 253.368904 273.312 
L 254.989862 273.312 
L 254.989862 143.473611 
L 253.368904 143.473611 
z
" style="fill:#1f77b4;"/>
   </g>
   <g id="patch_123">
    <path clip-path="url(#p6a7c32d310)" d="M 254.989862 273.312 
L 256.61082 273.312 
L 256.61082 128.165154 
L 254.989862 128.165154 
z
" style="fill:#1f77b4;"/>
   </g>
   <g id="patch_124">
    <path clip-path="url(#p6a7c32d310)" d="M 256.61082 273.312 
L 258.231778 273.312 
L 258.231778 148.57643 
L 256.61082 148.57643 
z
" style="fill:#1f77b4;"/>
   </g>
   <g id="patch_125">
    <path clip-path="url(#p6a7c32d310)" d="M 258.231778 273.312 
L 259.852736 273.312 
L 259.852736 138.937772 
L 258.231778 138.937772 
z
" style="fill:#1f77b4;"/>
   </g>
   <g id="patch_126">
    <path clip-path="url(#p6a7c32d310)" d="M 259.852736 273.312 
L 261.473694 273.312 
L 261.473694 130.433074 
L 259.852736 130.433074 
z
" style="fill:#1f77b4;"/>
   </g>
   <g id="patch_127">
    <path clip-path="url(#p6a7c32d310)" d="M 261.473694 273.312 
L 263.094652 273.312 
L 263.094652 124.196295 
L 261.473694 124.196295 
z
" style="fill:#1f77b4;"/>
   </g>
   <g id="patch_128">
    <path clip-path="url(#p6a7c32d310)" d="M 263.094652 273.312 
L 264.71561 273.312 
L 264.71561 134.401933 
L 263.094652 134.401933 
z
" style="fill:#1f77b4;"/>
   </g>
   <g id="patch_129">
    <path clip-path="url(#p6a7c32d310)" d="M 264.71561 273.312 
L 266.336568 273.312 
L 266.336568 147.44247 
L 264.71561 147.44247 
z
" style="fill:#1f77b4;"/>
   </g>
   <g id="patch_130">
    <path clip-path="url(#p6a7c32d310)" d="M 266.336568 273.312 
L 267.957526 273.312 
L 267.957526 138.937772 
L 266.336568 138.937772 
z
" style="fill:#1f77b4;"/>
   </g>
   <g id="patch_131">
    <path clip-path="url(#p6a7c32d310)" d="M 267.957526 273.312 
L 269.578484 273.312 
L 269.578484 110.588779 
L 267.957526 110.588779 
z
" style="fill:#1f77b4;"/>
   </g>
   <g id="patch_132">
    <path clip-path="url(#p6a7c32d310)" d="M 269.578484 273.312 
L 271.199442 273.312 
L 271.199442 126.464215 
L 269.578484 126.464215 
z
" style="fill:#1f77b4;"/>
   </g>
   <g id="patch_133">
    <path clip-path="url(#p6a7c32d310)" d="M 271.199442 273.312 
L 272.8204 273.312 
L 272.8204 124.763275 
L 271.199442 124.763275 
z
" style="fill:#1f77b4;"/>
   </g>
   <g id="patch_134">
    <path clip-path="url(#p6a7c32d310)" d="M 272.8204 273.312 
L 274.441358 273.312 
L 274.441358 129.299114 
L 272.8204 129.299114 
z
" style="fill:#1f77b4;"/>
   </g>
   <g id="patch_135">
    <path clip-path="url(#p6a7c32d310)" d="M 274.441358 273.312 
L 276.062316 273.312 
L 276.062316 121.361396 
L 274.441358 121.361396 
z
" style="fill:#1f77b4;"/>
   </g>
   <g id="patch_136">
    <path clip-path="url(#p6a7c32d310)" d="M 276.062316 273.312 
L 277.683274 273.312 
L 277.683274 108.887839 
L 276.062316 108.887839 
z
" style="fill:#1f77b4;"/>
   </g>
   <g id="patch_137">
    <path clip-path="url(#p6a7c32d310)" d="M 277.683274 273.312 
L 279.304232 273.312 
L 279.304232 112.856698 
L 277.683274 112.856698 
z
" style="fill:#1f77b4;"/>
   </g>
   <g id="patch_138">
    <path clip-path="url(#p6a7c32d310)" d="M 279.304232 273.312 
L 280.92519 273.312 
L 280.92519 121.361396 
L 279.304232 121.361396 
z
" style="fill:#1f77b4;"/>
   </g>
   <g id="patch_139">
    <path clip-path="url(#p6a7c32d310)" d="M 280.92519 273.312 
L 282.546148 273.312 
L 282.546148 129.299114 
L 280.92519 129.299114 
z
" style="fill:#1f77b4;"/>
   </g>
   <g id="patch_140">
    <path clip-path="url(#p6a7c32d310)" d="M 282.546148 273.312 
L 284.167106 273.312 
L 284.167106 110.588779 
L 282.546148 110.588779 
z
" style="fill:#1f77b4;"/>
   </g>
   <g id="patch_141">
    <path clip-path="url(#p6a7c32d310)" d="M 284.167106 273.312 
L 285.788064 273.312 
L 285.788064 118.526497 
L 284.167106 118.526497 
z
" style="fill:#1f77b4;"/>
   </g>
   <g id="patch_142">
    <path clip-path="url(#p6a7c32d310)" d="M 285.788064 273.312 
L 287.409022 273.312 
L 287.409022 119.660456 
L 285.788064 119.660456 
z
" style="fill:#1f77b4;"/>
   </g>
   <g id="patch_143">
    <path clip-path="url(#p6a7c32d310)" d="M 287.409022 273.312 
L 289.02998 273.312 
L 289.02998 132.700993 
L 287.409022 132.700993 
z
" style="fill:#1f77b4;"/>
   </g>
   <g id="patch_144">
    <path clip-path="url(#p6a7c32d310)" d="M 289.02998 273.312 
L 290.650938 273.312 
L 290.650938 100.383141 
L 289.02998 100.383141 
z
" style="fill:#1f77b4;"/>
   </g>
   <g id="patch_145">
    <path clip-path="url(#p6a7c32d310)" d="M 290.650938 273.312 
L 292.271896 273.312 
L 292.271896 103.21804 
L 290.650938 103.21804 
z
" style="fill:#1f77b4;"/>
   </g>
   <g id="patch_146">
    <path clip-path="url(#p6a7c32d310)" d="M 292.271896 273.312 
L 293.892854 273.312 
L 293.892854 113.990658 
L 292.271896 113.990658 
z
" style="fill:#1f77b4;"/>
   </g>
   <g id="patch_147">
    <path clip-path="url(#p6a7c32d310)" d="M 293.892854 273.312 
L 295.513812 273.312 
L 295.513812 112.856698 
L 293.892854 112.856698 
z
" style="fill:#1f77b4;"/>
   </g>
   <g id="patch_148">
    <path clip-path="url(#p6a7c32d310)" d="M 295.513812 273.312 
L 297.13477 273.312 
L 297.13477 111.722738 
L 295.513812 111.722738 
z
" style="fill:#1f77b4;"/>
   </g>
   <g id="patch_149">
    <path clip-path="url(#p6a7c32d310)" d="M 297.13477 273.312 
L 298.755728 273.312 
L 298.755728 91.878443 
L 297.13477 91.878443 
z
" style="fill:#1f77b4;"/>
   </g>
   <g id="patch_150">
    <path clip-path="url(#p6a7c32d310)" d="M 298.755728 273.312 
L 300.376686 273.312 
L 300.376686 103.21804 
L 298.755728 103.21804 
z
" style="fill:#1f77b4;"/>
   </g>
   <g id="patch_151">
    <path clip-path="url(#p6a7c32d310)" d="M 300.376686 273.312 
L 301.997644 273.312 
L 301.997644 90.177503 
L 300.376686 90.177503 
z
" style="fill:#1f77b4;"/>
   </g>
   <g id="patch_152">
    <path clip-path="url(#p6a7c32d310)" d="M 301.997644 273.312 
L 303.618602 273.312 
L 303.618602 110.021799 
L 301.997644 110.021799 
z
" style="fill:#1f77b4;"/>
   </g>
   <g id="patch_153">
    <path clip-path="url(#p6a7c32d310)" d="M 303.618602 273.312 
L 305.23956 273.312 
L 305.23956 82.806765 
L 303.618602 82.806765 
z
" style="fill:#1f77b4;"/>
   </g>
   <g id="patch_154">
    <path clip-path="url(#p6a7c32d310)" d="M 305.23956 273.312 
L 306.860518 273.312 
L 306.860518 105.48596 
L 305.23956 105.48596 
z
" style="fill:#1f77b4;"/>
   </g>
   <g id="patch_155">
    <path clip-path="url(#p6a7c32d310)" d="M 306.860518 273.312 
L 308.481476 273.312 
L 308.481476 93.012403 
L 306.860518 93.012403 
z
" style="fill:#1f77b4;"/>
   </g>
   <g id="patch_156">
    <path clip-path="url(#p6a7c32d310)" d="M 308.481476 273.312 
L 310.102434 273.312 
L 310.102434 98.682201 
L 308.481476 98.682201 
z
" style="fill:#1f77b4;"/>
   </g>
   <g id="patch_157">
    <path clip-path="url(#p6a7c32d310)" d="M 310.102434 273.312 
L 311.723392 273.312 
L 311.723392 99.816161 
L 310.102434 99.816161 
z
" style="fill:#1f77b4;"/>
   </g>
   <g id="patch_158">
    <path clip-path="url(#p6a7c32d310)" d="M 311.723392 273.312 
L 313.34435 273.312 
L 313.34435 91.311463 
L 311.723392 91.311463 
z
" style="fill:#1f77b4;"/>
   </g>
   <g id="patch_159">
    <path clip-path="url(#p6a7c32d310)" d="M 313.34435 273.312 
L 314.965308 273.312 
L 314.965308 117.392537 
L 313.34435 117.392537 
z
" style="fill:#1f77b4;"/>
   </g>
   <g id="patch_160">
    <path clip-path="url(#p6a7c32d310)" d="M 314.965308 273.312 
L 316.586266 273.312 
L 316.586266 96.414282 
L 314.965308 96.414282 
z
" style="fill:#1f77b4;"/>
   </g>
   <g id="patch_161">
    <path clip-path="url(#p6a7c32d310)" d="M 316.586266 273.312 
L 318.207224 273.312 
L 318.207224 90.177503 
L 316.586266 90.177503 
z
" style="fill:#1f77b4;"/>
   </g>
   <g id="patch_162">
    <path clip-path="url(#p6a7c32d310)" d="M 318.207224 273.312 
L 319.828182 273.312 
L 319.828182 93.012403 
L 318.207224 93.012403 
z
" style="fill:#1f77b4;"/>
   </g>
   <g id="patch_163">
    <path clip-path="url(#p6a7c32d310)" d="M 319.828182 273.312 
L 321.44914 273.312 
L 321.44914 103.78502 
L 319.828182 103.78502 
z
" style="fill:#1f77b4;"/>
   </g>
   <g id="patch_164">
    <path clip-path="url(#p6a7c32d310)" d="M 321.44914 273.312 
L 323.070098 273.312 
L 323.070098 89.610523 
L 321.44914 89.610523 
z
" style="fill:#1f77b4;"/>
   </g>
   <g id="patch_165">
    <path clip-path="url(#p6a7c32d310)" d="M 323.070098 273.312 
L 324.691056 273.312 
L 324.691056 98.682201 
L 323.070098 98.682201 
z
" style="fill:#1f77b4;"/>
   </g>
   <g id="patch_166">
    <path clip-path="url(#p6a7c32d310)" d="M 324.691056 273.312 
L 326.312014 273.312 
L 326.312014 85.641664 
L 324.691056 85.641664 
z
" style="fill:#1f77b4;"/>
   </g>
   <g id="patch_167">
    <path clip-path="url(#p6a7c32d310)" d="M 326.312014 273.312 
L 327.932972 273.312 
L 327.932972 98.682201 
L 326.312014 98.682201 
z
" style="fill:#1f77b4;"/>
   </g>
   <g id="patch_168">
    <path clip-path="url(#p6a7c32d310)" d="M 327.932972 273.312 
L 329.55393 273.312 
L 329.55393 82.239785 
L 327.932972 82.239785 
z
" style="fill:#1f77b4;"/>
   </g>
   <g id="patch_169">
    <path clip-path="url(#p6a7c32d310)" d="M 329.55393 273.312 
L 331.174888 273.312 
L 331.174888 62.96247 
L 329.55393 62.96247 
z
" style="fill:#1f77b4;"/>
   </g>
   <g id="patch_170">
    <path clip-path="url(#p6a7c32d310)" d="M 331.174888 273.312 
L 332.795846 273.312 
L 332.795846 71.467168 
L 331.174888 71.467168 
z
" style="fill:#1f77b4;"/>
   </g>
   <g id="patch_171">
    <path clip-path="url(#p6a7c32d310)" d="M 332.795846 273.312 
L 334.416804 273.312 
L 334.416804 82.806765 
L 332.795846 82.806765 
z
" style="fill:#1f77b4;"/>
   </g>
   <g id="patch_172">
    <path clip-path="url(#p6a7c32d310)" d="M 334.416804 273.312 
L 336.037762 273.312 
L 336.037762 81.105826 
L 334.416804 81.105826 
z
" style="fill:#1f77b4;"/>
   </g>
   <g id="patch_173">
    <path clip-path="url(#p6a7c32d310)" d="M 336.037762 273.312 
L 337.65872 273.312 
L 337.65872 83.940725 
L 336.037762 83.940725 
z
" style="fill:#1f77b4;"/>
   </g>
   <g id="patch_174">
    <path clip-path="url(#p6a7c32d310)" d="M 337.65872 273.312 
L 339.279678 273.312 
L 339.279678 86.775624 
L 337.65872 86.775624 
z
" style="fill:#1f77b4;"/>
   </g>
   <g id="patch_175">
    <path clip-path="url(#p6a7c32d310)" d="M 339.279678 273.312 
L 340.900636 273.312 
L 340.900636 82.806765 
L 339.279678 82.806765 
z
" style="fill:#1f77b4;"/>
   </g>
   <g id="patch_176">
    <path clip-path="url(#p6a7c32d310)" d="M 340.900636 273.312 
L 342.521594 273.312 
L 342.521594 62.96247 
L 340.900636 62.96247 
z
" style="fill:#1f77b4;"/>
   </g>
   <g id="patch_177">
    <path clip-path="url(#p6a7c32d310)" d="M 342.521594 273.312 
L 344.142552 273.312 
L 344.142552 69.199248 
L 342.521594 69.199248 
z
" style="fill:#1f77b4;"/>
   </g>
   <g id="patch_178">
    <path clip-path="url(#p6a7c32d310)" d="M 344.142552 273.312 
L 345.76351 273.312 
L 345.76351 75.436027 
L 344.142552 75.436027 
z
" style="fill:#1f77b4;"/>
   </g>
   <g id="patch_179">
    <path clip-path="url(#p6a7c32d310)" d="M 345.76351 273.312 
L 347.384468 273.312 
L 347.384468 70.333208 
L 345.76351 70.333208 
z
" style="fill:#1f77b4;"/>
   </g>
   <g id="patch_180">
    <path clip-path="url(#p6a7c32d310)" d="M 347.384468 273.312 
L 349.005426 273.312 
L 349.005426 65.797369 
L 347.384468 65.797369 
z
" style="fill:#1f77b4;"/>
   </g>
   <g id="patch_181">
    <path clip-path="url(#p6a7c32d310)" d="M 349.005426 273.312 
L 350.626384 273.312 
L 350.626384 76.569987 
L 349.005426 76.569987 
z
" style="fill:#1f77b4;"/>
   </g>
   <g id="patch_182">
    <path clip-path="url(#p6a7c32d310)" d="M 350.626384 273.312 
L 352.247342 273.312 
L 352.247342 74.869047 
L 350.626384 74.869047 
z
" style="fill:#1f77b4;"/>
   </g>
   <g id="patch_183">
    <path clip-path="url(#p6a7c32d310)" d="M 352.247342 273.312 
L 353.8683 273.312 
L 353.8683 78.837906 
L 352.247342 78.837906 
z
" style="fill:#1f77b4;"/>
   </g>
   <g id="patch_184">
    <path clip-path="url(#p6a7c32d310)" d="M 353.8683 273.312 
L 355.489258 273.312 
L 355.489258 64.09643 
L 353.8683 64.09643 
z
" style="fill:#1f77b4;"/>
   </g>
   <g id="patch_185">
    <path clip-path="url(#p6a7c32d310)" d="M 355.489258 273.312 
L 357.110216 273.312 
L 357.110216 65.797369 
L 355.489258 65.797369 
z
" style="fill:#1f77b4;"/>
   </g>
   <g id="patch_186">
    <path clip-path="url(#p6a7c32d310)" d="M 357.110216 273.312 
L 358.731174 273.312 
L 358.731174 59.560591 
L 357.110216 59.560591 
z
" style="fill:#1f77b4;"/>
   </g>
   <g id="patch_187">
    <path clip-path="url(#p6a7c32d310)" d="M 358.731174 273.312 
L 360.352132 273.312 
L 360.352132 66.931329 
L 358.731174 66.931329 
z
" style="fill:#1f77b4;"/>
   </g>
   <g id="patch_188">
    <path clip-path="url(#p6a7c32d310)" d="M 360.352132 273.312 
L 361.97309 273.312 
L 361.97309 80.538846 
L 360.352132 80.538846 
z
" style="fill:#1f77b4;"/>
   </g>
   <g id="patch_189">
    <path clip-path="url(#p6a7c32d310)" d="M 361.97309 273.312 
L 363.594048 273.312 
L 363.594048 69.766228 
L 361.97309 69.766228 
z
" style="fill:#1f77b4;"/>
   </g>
   <g id="patch_190">
    <path clip-path="url(#p6a7c32d310)" d="M 363.594048 273.312 
L 365.215006 273.312 
L 365.215006 57.859651 
L 363.594048 57.859651 
z
" style="fill:#1f77b4;"/>
   </g>
   <g id="patch_191">
    <path clip-path="url(#p6a7c32d310)" d="M 365.215006 273.312 
L 366.835964 273.312 
L 366.835964 52.189852 
L 365.215006 52.189852 
z
" style="fill:#1f77b4;"/>
   </g>
   <g id="patch_192">
    <path clip-path="url(#p6a7c32d310)" d="M 366.835964 273.312 
L 368.456922 273.312 
L 368.456922 70.333208 
L 366.835964 70.333208 
z
" style="fill:#1f77b4;"/>
   </g>
   <g id="patch_193">
    <path clip-path="url(#p6a7c32d310)" d="M 368.456922 273.312 
L 370.07788 273.312 
L 370.07788 72.601128 
L 368.456922 72.601128 
z
" style="fill:#1f77b4;"/>
   </g>
   <g id="patch_194">
    <path clip-path="url(#p6a7c32d310)" d="M 370.07788 273.312 
L 371.698838 273.312 
L 371.698838 40.283275 
L 370.07788 40.283275 
z
" style="fill:#1f77b4;"/>
   </g>
   <g id="patch_195">
    <path clip-path="url(#p6a7c32d310)" d="M 371.698838 273.312 
L 373.319796 273.312 
L 373.319796 61.82851 
L 371.698838 61.82851 
z
" style="fill:#1f77b4;"/>
   </g>
   <g id="patch_196">
    <path clip-path="url(#p6a7c32d310)" d="M 373.319796 273.312 
L 374.940754 273.312 
L 374.940754 35.180456 
L 373.319796 35.180456 
z
" style="fill:#1f77b4;"/>
   </g>
   <g id="patch_197">
    <path clip-path="url(#p6a7c32d310)" d="M 374.940754 273.312 
L 376.561712 273.312 
L 376.561712 19.872 
L 374.940754 19.872 
z
" style="fill:#1f77b4;"/>
   </g>
   <g id="patch_198">
    <path clip-path="url(#p6a7c32d310)" d="M 376.561712 273.312 
L 378.18267 273.312 
L 378.18267 67.498309 
L 376.561712 67.498309 
z
" style="fill:#1f77b4;"/>
   </g>
   <g id="patch_199">
    <path clip-path="url(#p6a7c32d310)" d="M 378.18267 273.312 
L 379.803628 273.312 
L 379.803628 51.055893 
L 378.18267 51.055893 
z
" style="fill:#1f77b4;"/>
   </g>
   <g id="patch_200">
    <path clip-path="url(#p6a7c32d310)" d="M 379.803628 273.312 
L 381.424586 273.312 
L 381.424586 45.953074 
L 379.803628 45.953074 
z
" style="fill:#1f77b4;"/>
   </g>
   <g id="patch_201">
    <path clip-path="url(#p6a7c32d310)" d="M 381.424586 273.312 
L 383.045544 273.312 
L 383.045544 55.591732 
L 381.424586 55.591732 
z
" style="fill:#1f77b4;"/>
   </g>
   <g id="patch_202">
    <path clip-path="url(#p6a7c32d310)" d="M 383.045544 273.312 
L 384.666502 273.312 
L 384.666502 42.551195 
L 383.045544 42.551195 
z
" style="fill:#1f77b4;"/>
   </g>
   <g id="matplotlib.axis_1">
    <g id="xtick_1">
     <g id="line2d_1">
      <defs>
       <path d="M 0 0 
L 0 3.5 
" id="m39ead3c58e" style="stroke:#000000;stroke-width:0.8;"/>
      </defs>
      <g>
       <use style="stroke:#000000;stroke-width:0.8;" x="60.013977" xlink:href="#m39ead3c58e" y="273.312"/>
      </g>
     </g>
     <g id="text_1">
      <!-- 0.0 -->
      <g transform="translate(52.062415 287.910437)scale(0.1 -0.1)">
       <defs>
        <path d="M 2034 4250 
Q 1547 4250 1301 3770 
Q 1056 3291 1056 2328 
Q 1056 1369 1301 889 
Q 1547 409 2034 409 
Q 2525 409 2770 889 
Q 3016 1369 3016 2328 
Q 3016 3291 2770 3770 
Q 2525 4250 2034 4250 
z
M 2034 4750 
Q 2819 4750 3233 4129 
Q 3647 3509 3647 2328 
Q 3647 1150 3233 529 
Q 2819 -91 2034 -91 
Q 1250 -91 836 529 
Q 422 1150 422 2328 
Q 422 3509 836 4129 
Q 1250 4750 2034 4750 
z
" id="DejaVuSans-30" transform="scale(0.015625)"/>
        <path d="M 684 794 
L 1344 794 
L 1344 0 
L 684 0 
L 684 794 
z
" id="DejaVuSans-2e" transform="scale(0.015625)"/>
       </defs>
       <use xlink:href="#DejaVuSans-30"/>
       <use x="63.623047" xlink:href="#DejaVuSans-2e"/>
       <use x="95.410156" xlink:href="#DejaVuSans-30"/>
      </g>
     </g>
    </g>
    <g id="xtick_2">
     <g id="line2d_2">
      <g>
       <use style="stroke:#000000;stroke-width:0.8;" x="124.944886" xlink:href="#m39ead3c58e" y="273.312"/>
      </g>
     </g>
     <g id="text_2">
      <!-- 0.2 -->
      <g transform="translate(116.993324 287.910437)scale(0.1 -0.1)">
       <defs>
        <path d="M 1228 531 
L 3431 531 
L 3431 0 
L 469 0 
L 469 531 
Q 828 903 1448 1529 
Q 2069 2156 2228 2338 
Q 2531 2678 2651 2914 
Q 2772 3150 2772 3378 
Q 2772 3750 2511 3984 
Q 2250 4219 1831 4219 
Q 1534 4219 1204 4116 
Q 875 4013 500 3803 
L 500 4441 
Q 881 4594 1212 4672 
Q 1544 4750 1819 4750 
Q 2544 4750 2975 4387 
Q 3406 4025 3406 3419 
Q 3406 3131 3298 2873 
Q 3191 2616 2906 2266 
Q 2828 2175 2409 1742 
Q 1991 1309 1228 531 
z
" id="DejaVuSans-32" transform="scale(0.015625)"/>
       </defs>
       <use xlink:href="#DejaVuSans-30"/>
       <use x="63.623047" xlink:href="#DejaVuSans-2e"/>
       <use x="95.410156" xlink:href="#DejaVuSans-32"/>
      </g>
     </g>
    </g>
    <g id="xtick_3">
     <g id="line2d_3">
      <g>
       <use style="stroke:#000000;stroke-width:0.8;" x="189.875795" xlink:href="#m39ead3c58e" y="273.312"/>
      </g>
     </g>
     <g id="text_3">
      <!-- 0.4 -->
      <g transform="translate(181.924233 287.910437)scale(0.1 -0.1)">
       <defs>
        <path d="M 2419 4116 
L 825 1625 
L 2419 1625 
L 2419 4116 
z
M 2253 4666 
L 3047 4666 
L 3047 1625 
L 3713 1625 
L 3713 1100 
L 3047 1100 
L 3047 0 
L 2419 0 
L 2419 1100 
L 313 1100 
L 313 1709 
L 2253 4666 
z
" id="DejaVuSans-34" transform="scale(0.015625)"/>
       </defs>
       <use xlink:href="#DejaVuSans-30"/>
       <use x="63.623047" xlink:href="#DejaVuSans-2e"/>
       <use x="95.410156" xlink:href="#DejaVuSans-34"/>
      </g>
     </g>
    </g>
    <g id="xtick_4">
     <g id="line2d_4">
      <g>
       <use style="stroke:#000000;stroke-width:0.8;" x="254.806705" xlink:href="#m39ead3c58e" y="273.312"/>
      </g>
     </g>
     <g id="text_4">
      <!-- 0.6 -->
      <g transform="translate(246.855142 287.910437)scale(0.1 -0.1)">
       <defs>
        <path d="M 2113 2584 
Q 1688 2584 1439 2293 
Q 1191 2003 1191 1497 
Q 1191 994 1439 701 
Q 1688 409 2113 409 
Q 2538 409 2786 701 
Q 3034 994 3034 1497 
Q 3034 2003 2786 2293 
Q 2538 2584 2113 2584 
z
M 3366 4563 
L 3366 3988 
Q 3128 4100 2886 4159 
Q 2644 4219 2406 4219 
Q 1781 4219 1451 3797 
Q 1122 3375 1075 2522 
Q 1259 2794 1537 2939 
Q 1816 3084 2150 3084 
Q 2853 3084 3261 2657 
Q 3669 2231 3669 1497 
Q 3669 778 3244 343 
Q 2819 -91 2113 -91 
Q 1303 -91 875 529 
Q 447 1150 447 2328 
Q 447 3434 972 4092 
Q 1497 4750 2381 4750 
Q 2619 4750 2861 4703 
Q 3103 4656 3366 4563 
z
" id="DejaVuSans-36" transform="scale(0.015625)"/>
       </defs>
       <use xlink:href="#DejaVuSans-30"/>
       <use x="63.623047" xlink:href="#DejaVuSans-2e"/>
       <use x="95.410156" xlink:href="#DejaVuSans-36"/>
      </g>
     </g>
    </g>
    <g id="xtick_5">
     <g id="line2d_5">
      <g>
       <use style="stroke:#000000;stroke-width:0.8;" x="319.737614" xlink:href="#m39ead3c58e" y="273.312"/>
      </g>
     </g>
     <g id="text_5">
      <!-- 0.8 -->
      <g transform="translate(311.786051 287.910437)scale(0.1 -0.1)">
       <defs>
        <path d="M 2034 2216 
Q 1584 2216 1326 1975 
Q 1069 1734 1069 1313 
Q 1069 891 1326 650 
Q 1584 409 2034 409 
Q 2484 409 2743 651 
Q 3003 894 3003 1313 
Q 3003 1734 2745 1975 
Q 2488 2216 2034 2216 
z
M 1403 2484 
Q 997 2584 770 2862 
Q 544 3141 544 3541 
Q 544 4100 942 4425 
Q 1341 4750 2034 4750 
Q 2731 4750 3128 4425 
Q 3525 4100 3525 3541 
Q 3525 3141 3298 2862 
Q 3072 2584 2669 2484 
Q 3125 2378 3379 2068 
Q 3634 1759 3634 1313 
Q 3634 634 3220 271 
Q 2806 -91 2034 -91 
Q 1263 -91 848 271 
Q 434 634 434 1313 
Q 434 1759 690 2068 
Q 947 2378 1403 2484 
z
M 1172 3481 
Q 1172 3119 1398 2916 
Q 1625 2713 2034 2713 
Q 2441 2713 2670 2916 
Q 2900 3119 2900 3481 
Q 2900 3844 2670 4047 
Q 2441 4250 2034 4250 
Q 1625 4250 1398 4047 
Q 1172 3844 1172 3481 
z
" id="DejaVuSans-38" transform="scale(0.015625)"/>
       </defs>
       <use xlink:href="#DejaVuSans-30"/>
       <use x="63.623047" xlink:href="#DejaVuSans-2e"/>
       <use x="95.410156" xlink:href="#DejaVuSans-38"/>
      </g>
     </g>
    </g>
    <g id="xtick_6">
     <g id="line2d_6">
      <g>
       <use style="stroke:#000000;stroke-width:0.8;" x="384.668523" xlink:href="#m39ead3c58e" y="273.312"/>
      </g>
     </g>
     <g id="text_6">
      <!-- 1.0 -->
      <g transform="translate(376.71696 287.910437)scale(0.1 -0.1)">
       <defs>
        <path d="M 794 531 
L 1825 531 
L 1825 4091 
L 703 3866 
L 703 4441 
L 1819 4666 
L 2450 4666 
L 2450 531 
L 3481 531 
L 3481 0 
L 794 0 
L 794 531 
z
" id="DejaVuSans-31" transform="scale(0.015625)"/>
       </defs>
       <use xlink:href="#DejaVuSans-31"/>
       <use x="63.623047" xlink:href="#DejaVuSans-2e"/>
       <use x="95.410156" xlink:href="#DejaVuSans-30"/>
      </g>
     </g>
    </g>
    <g id="text_7">
     <!-- Propagation direction -->
     <g transform="translate(168.859219 301.588562)scale(0.1 -0.1)">
      <defs>
       <path d="M 1259 4147 
L 1259 2394 
L 2053 2394 
Q 2494 2394 2734 2622 
Q 2975 2850 2975 3272 
Q 2975 3691 2734 3919 
Q 2494 4147 2053 4147 
L 1259 4147 
z
M 628 4666 
L 2053 4666 
Q 2838 4666 3239 4311 
Q 3641 3956 3641 3272 
Q 3641 2581 3239 2228 
Q 2838 1875 2053 1875 
L 1259 1875 
L 1259 0 
L 628 0 
L 628 4666 
z
" id="DejaVuSans-50" transform="scale(0.015625)"/>
       <path d="M 2631 2963 
Q 2534 3019 2420 3045 
Q 2306 3072 2169 3072 
Q 1681 3072 1420 2755 
Q 1159 2438 1159 1844 
L 1159 0 
L 581 0 
L 581 3500 
L 1159 3500 
L 1159 2956 
Q 1341 3275 1631 3429 
Q 1922 3584 2338 3584 
Q 2397 3584 2469 3576 
Q 2541 3569 2628 3553 
L 2631 2963 
z
" id="DejaVuSans-72" transform="scale(0.015625)"/>
       <path d="M 1959 3097 
Q 1497 3097 1228 2736 
Q 959 2375 959 1747 
Q 959 1119 1226 758 
Q 1494 397 1959 397 
Q 2419 397 2687 759 
Q 2956 1122 2956 1747 
Q 2956 2369 2687 2733 
Q 2419 3097 1959 3097 
z
M 1959 3584 
Q 2709 3584 3137 3096 
Q 3566 2609 3566 1747 
Q 3566 888 3137 398 
Q 2709 -91 1959 -91 
Q 1206 -91 779 398 
Q 353 888 353 1747 
Q 353 2609 779 3096 
Q 1206 3584 1959 3584 
z
" id="DejaVuSans-6f" transform="scale(0.015625)"/>
       <path d="M 1159 525 
L 1159 -1331 
L 581 -1331 
L 581 3500 
L 1159 3500 
L 1159 2969 
Q 1341 3281 1617 3432 
Q 1894 3584 2278 3584 
Q 2916 3584 3314 3078 
Q 3713 2572 3713 1747 
Q 3713 922 3314 415 
Q 2916 -91 2278 -91 
Q 1894 -91 1617 61 
Q 1341 213 1159 525 
z
M 3116 1747 
Q 3116 2381 2855 2742 
Q 2594 3103 2138 3103 
Q 1681 3103 1420 2742 
Q 1159 2381 1159 1747 
Q 1159 1113 1420 752 
Q 1681 391 2138 391 
Q 2594 391 2855 752 
Q 3116 1113 3116 1747 
z
" id="DejaVuSans-70" transform="scale(0.015625)"/>
       <path d="M 2194 1759 
Q 1497 1759 1228 1600 
Q 959 1441 959 1056 
Q 959 750 1161 570 
Q 1363 391 1709 391 
Q 2188 391 2477 730 
Q 2766 1069 2766 1631 
L 2766 1759 
L 2194 1759 
z
M 3341 1997 
L 3341 0 
L 2766 0 
L 2766 531 
Q 2569 213 2275 61 
Q 1981 -91 1556 -91 
Q 1019 -91 701 211 
Q 384 513 384 1019 
Q 384 1609 779 1909 
Q 1175 2209 1959 2209 
L 2766 2209 
L 2766 2266 
Q 2766 2663 2505 2880 
Q 2244 3097 1772 3097 
Q 1472 3097 1187 3025 
Q 903 2953 641 2809 
L 641 3341 
Q 956 3463 1253 3523 
Q 1550 3584 1831 3584 
Q 2591 3584 2966 3190 
Q 3341 2797 3341 1997 
z
" id="DejaVuSans-61" transform="scale(0.015625)"/>
       <path d="M 2906 1791 
Q 2906 2416 2648 2759 
Q 2391 3103 1925 3103 
Q 1463 3103 1205 2759 
Q 947 2416 947 1791 
Q 947 1169 1205 825 
Q 1463 481 1925 481 
Q 2391 481 2648 825 
Q 2906 1169 2906 1791 
z
M 3481 434 
Q 3481 -459 3084 -895 
Q 2688 -1331 1869 -1331 
Q 1566 -1331 1297 -1286 
Q 1028 -1241 775 -1147 
L 775 -588 
Q 1028 -725 1275 -790 
Q 1522 -856 1778 -856 
Q 2344 -856 2625 -561 
Q 2906 -266 2906 331 
L 2906 616 
Q 2728 306 2450 153 
Q 2172 0 1784 0 
Q 1141 0 747 490 
Q 353 981 353 1791 
Q 353 2603 747 3093 
Q 1141 3584 1784 3584 
Q 2172 3584 2450 3431 
Q 2728 3278 2906 2969 
L 2906 3500 
L 3481 3500 
L 3481 434 
z
" id="DejaVuSans-67" transform="scale(0.015625)"/>
       <path d="M 1172 4494 
L 1172 3500 
L 2356 3500 
L 2356 3053 
L 1172 3053 
L 1172 1153 
Q 1172 725 1289 603 
Q 1406 481 1766 481 
L 2356 481 
L 2356 0 
L 1766 0 
Q 1100 0 847 248 
Q 594 497 594 1153 
L 594 3053 
L 172 3053 
L 172 3500 
L 594 3500 
L 594 4494 
L 1172 4494 
z
" id="DejaVuSans-74" transform="scale(0.015625)"/>
       <path d="M 603 3500 
L 1178 3500 
L 1178 0 
L 603 0 
L 603 3500 
z
M 603 4863 
L 1178 4863 
L 1178 4134 
L 603 4134 
L 603 4863 
z
" id="DejaVuSans-69" transform="scale(0.015625)"/>
       <path d="M 3513 2113 
L 3513 0 
L 2938 0 
L 2938 2094 
Q 2938 2591 2744 2837 
Q 2550 3084 2163 3084 
Q 1697 3084 1428 2787 
Q 1159 2491 1159 1978 
L 1159 0 
L 581 0 
L 581 3500 
L 1159 3500 
L 1159 2956 
Q 1366 3272 1645 3428 
Q 1925 3584 2291 3584 
Q 2894 3584 3203 3211 
Q 3513 2838 3513 2113 
z
" id="DejaVuSans-6e" transform="scale(0.015625)"/>
       <path id="DejaVuSans-20" transform="scale(0.015625)"/>
       <path d="M 2906 2969 
L 2906 4863 
L 3481 4863 
L 3481 0 
L 2906 0 
L 2906 525 
Q 2725 213 2448 61 
Q 2172 -91 1784 -91 
Q 1150 -91 751 415 
Q 353 922 353 1747 
Q 353 2572 751 3078 
Q 1150 3584 1784 3584 
Q 2172 3584 2448 3432 
Q 2725 3281 2906 2969 
z
M 947 1747 
Q 947 1113 1208 752 
Q 1469 391 1925 391 
Q 2381 391 2643 752 
Q 2906 1113 2906 1747 
Q 2906 2381 2643 2742 
Q 2381 3103 1925 3103 
Q 1469 3103 1208 2742 
Q 947 2381 947 1747 
z
" id="DejaVuSans-64" transform="scale(0.015625)"/>
       <path d="M 3597 1894 
L 3597 1613 
L 953 1613 
Q 991 1019 1311 708 
Q 1631 397 2203 397 
Q 2534 397 2845 478 
Q 3156 559 3463 722 
L 3463 178 
Q 3153 47 2828 -22 
Q 2503 -91 2169 -91 
Q 1331 -91 842 396 
Q 353 884 353 1716 
Q 353 2575 817 3079 
Q 1281 3584 2069 3584 
Q 2775 3584 3186 3129 
Q 3597 2675 3597 1894 
z
M 3022 2063 
Q 3016 2534 2758 2815 
Q 2500 3097 2075 3097 
Q 1594 3097 1305 2825 
Q 1016 2553 972 2059 
L 3022 2063 
z
" id="DejaVuSans-65" transform="scale(0.015625)"/>
       <path d="M 3122 3366 
L 3122 2828 
Q 2878 2963 2633 3030 
Q 2388 3097 2138 3097 
Q 1578 3097 1268 2742 
Q 959 2388 959 1747 
Q 959 1106 1268 751 
Q 1578 397 2138 397 
Q 2388 397 2633 464 
Q 2878 531 3122 666 
L 3122 134 
Q 2881 22 2623 -34 
Q 2366 -91 2075 -91 
Q 1284 -91 818 406 
Q 353 903 353 1747 
Q 353 2603 823 3093 
Q 1294 3584 2113 3584 
Q 2378 3584 2631 3529 
Q 2884 3475 3122 3366 
z
" id="DejaVuSans-63" transform="scale(0.015625)"/>
      </defs>
      <use xlink:href="#DejaVuSans-50"/>
      <use x="58.552734" xlink:href="#DejaVuSans-72"/>
      <use x="97.416016" xlink:href="#DejaVuSans-6f"/>
      <use x="158.597656" xlink:href="#DejaVuSans-70"/>
      <use x="222.074219" xlink:href="#DejaVuSans-61"/>
      <use x="283.353516" xlink:href="#DejaVuSans-67"/>
      <use x="346.830078" xlink:href="#DejaVuSans-61"/>
      <use x="408.109375" xlink:href="#DejaVuSans-74"/>
      <use x="447.318359" xlink:href="#DejaVuSans-69"/>
      <use x="475.101562" xlink:href="#DejaVuSans-6f"/>
      <use x="536.283203" xlink:href="#DejaVuSans-6e"/>
      <use x="599.662109" xlink:href="#DejaVuSans-20"/>
      <use x="631.449219" xlink:href="#DejaVuSans-64"/>
      <use x="694.925781" xlink:href="#DejaVuSans-69"/>
      <use x="722.708984" xlink:href="#DejaVuSans-72"/>
      <use x="761.572266" xlink:href="#DejaVuSans-65"/>
      <use x="823.095703" xlink:href="#DejaVuSans-63"/>
      <use x="878.076172" xlink:href="#DejaVuSans-74"/>
      <use x="917.285156" xlink:href="#DejaVuSans-69"/>
      <use x="945.068359" xlink:href="#DejaVuSans-6f"/>
      <use x="1006.25" xlink:href="#DejaVuSans-6e"/>
     </g>
    </g>
   </g>
   <g id="matplotlib.axis_2">
    <g id="ytick_1">
     <g id="line2d_7">
      <defs>
       <path d="M 0 0 
L -3.5 0 
" id="m151837473f" style="stroke:#000000;stroke-width:0.8;"/>
      </defs>
      <g>
       <use style="stroke:#000000;stroke-width:0.8;" x="43.78125" xlink:href="#m151837473f" y="273.312"/>
      </g>
     </g>
     <g id="text_8">
      <!-- 0.0 -->
      <g transform="translate(20.878125 277.111219)scale(0.1 -0.1)">
       <use xlink:href="#DejaVuSans-30"/>
       <use x="63.623047" xlink:href="#DejaVuSans-2e"/>
       <use x="95.410156" xlink:href="#DejaVuSans-30"/>
      </g>
     </g>
    </g>
    <g id="ytick_2">
     <g id="line2d_8">
      <g>
       <use style="stroke:#000000;stroke-width:0.8;" x="43.78125" xlink:href="#m151837473f" y="216.694863"/>
      </g>
     </g>
     <g id="text_9">
      <!-- 0.5 -->
      <g transform="translate(20.878125 220.494082)scale(0.1 -0.1)">
       <defs>
        <path d="M 691 4666 
L 3169 4666 
L 3169 4134 
L 1269 4134 
L 1269 2991 
Q 1406 3038 1543 3061 
Q 1681 3084 1819 3084 
Q 2600 3084 3056 2656 
Q 3513 2228 3513 1497 
Q 3513 744 3044 326 
Q 2575 -91 1722 -91 
Q 1428 -91 1123 -41 
Q 819 9 494 109 
L 494 744 
Q 775 591 1075 516 
Q 1375 441 1709 441 
Q 2250 441 2565 725 
Q 2881 1009 2881 1497 
Q 2881 1984 2565 2268 
Q 2250 2553 1709 2553 
Q 1456 2553 1204 2497 
Q 953 2441 691 2322 
L 691 4666 
z
" id="DejaVuSans-35" transform="scale(0.015625)"/>
       </defs>
       <use xlink:href="#DejaVuSans-30"/>
       <use x="63.623047" xlink:href="#DejaVuSans-2e"/>
       <use x="95.410156" xlink:href="#DejaVuSans-35"/>
      </g>
     </g>
    </g>
    <g id="ytick_3">
     <g id="line2d_9">
      <g>
       <use style="stroke:#000000;stroke-width:0.8;" x="43.78125" xlink:href="#m151837473f" y="160.077726"/>
      </g>
     </g>
     <g id="text_10">
      <!-- 1.0 -->
      <g transform="translate(20.878125 163.876944)scale(0.1 -0.1)">
       <use xlink:href="#DejaVuSans-31"/>
       <use x="63.623047" xlink:href="#DejaVuSans-2e"/>
       <use x="95.410156" xlink:href="#DejaVuSans-30"/>
      </g>
     </g>
    </g>
    <g id="ytick_4">
     <g id="line2d_10">
      <g>
       <use style="stroke:#000000;stroke-width:0.8;" x="43.78125" xlink:href="#m151837473f" y="103.460589"/>
      </g>
     </g>
     <g id="text_11">
      <!-- 1.5 -->
      <g transform="translate(20.878125 107.259807)scale(0.1 -0.1)">
       <use xlink:href="#DejaVuSans-31"/>
       <use x="63.623047" xlink:href="#DejaVuSans-2e"/>
       <use x="95.410156" xlink:href="#DejaVuSans-35"/>
      </g>
     </g>
    </g>
    <g id="ytick_5">
     <g id="line2d_11">
      <g>
       <use style="stroke:#000000;stroke-width:0.8;" x="43.78125" xlink:href="#m151837473f" y="46.843451"/>
      </g>
     </g>
     <g id="text_12">
      <!-- 2.0 -->
      <g transform="translate(20.878125 50.64267)scale(0.1 -0.1)">
       <use xlink:href="#DejaVuSans-32"/>
       <use x="63.623047" xlink:href="#DejaVuSans-2e"/>
       <use x="95.410156" xlink:href="#DejaVuSans-30"/>
      </g>
     </g>
    </g>
    <g id="text_13">
     <!-- Probability density -->
     <g transform="translate(14.798438 186.606781)rotate(-90)scale(0.1 -0.1)">
      <defs>
       <path d="M 3116 1747 
Q 3116 2381 2855 2742 
Q 2594 3103 2138 3103 
Q 1681 3103 1420 2742 
Q 1159 2381 1159 1747 
Q 1159 1113 1420 752 
Q 1681 391 2138 391 
Q 2594 391 2855 752 
Q 3116 1113 3116 1747 
z
M 1159 2969 
Q 1341 3281 1617 3432 
Q 1894 3584 2278 3584 
Q 2916 3584 3314 3078 
Q 3713 2572 3713 1747 
Q 3713 922 3314 415 
Q 2916 -91 2278 -91 
Q 1894 -91 1617 61 
Q 1341 213 1159 525 
L 1159 0 
L 581 0 
L 581 4863 
L 1159 4863 
L 1159 2969 
z
" id="DejaVuSans-62" transform="scale(0.015625)"/>
       <path d="M 603 4863 
L 1178 4863 
L 1178 0 
L 603 0 
L 603 4863 
z
" id="DejaVuSans-6c" transform="scale(0.015625)"/>
       <path d="M 2059 -325 
Q 1816 -950 1584 -1140 
Q 1353 -1331 966 -1331 
L 506 -1331 
L 506 -850 
L 844 -850 
Q 1081 -850 1212 -737 
Q 1344 -625 1503 -206 
L 1606 56 
L 191 3500 
L 800 3500 
L 1894 763 
L 2988 3500 
L 3597 3500 
L 2059 -325 
z
" id="DejaVuSans-79" transform="scale(0.015625)"/>
       <path d="M 2834 3397 
L 2834 2853 
Q 2591 2978 2328 3040 
Q 2066 3103 1784 3103 
Q 1356 3103 1142 2972 
Q 928 2841 928 2578 
Q 928 2378 1081 2264 
Q 1234 2150 1697 2047 
L 1894 2003 
Q 2506 1872 2764 1633 
Q 3022 1394 3022 966 
Q 3022 478 2636 193 
Q 2250 -91 1575 -91 
Q 1294 -91 989 -36 
Q 684 19 347 128 
L 347 722 
Q 666 556 975 473 
Q 1284 391 1588 391 
Q 1994 391 2212 530 
Q 2431 669 2431 922 
Q 2431 1156 2273 1281 
Q 2116 1406 1581 1522 
L 1381 1569 
Q 847 1681 609 1914 
Q 372 2147 372 2553 
Q 372 3047 722 3315 
Q 1072 3584 1716 3584 
Q 2034 3584 2315 3537 
Q 2597 3491 2834 3397 
z
" id="DejaVuSans-73" transform="scale(0.015625)"/>
      </defs>
      <use xlink:href="#DejaVuSans-50"/>
      <use x="58.552734" xlink:href="#DejaVuSans-72"/>
      <use x="97.416016" xlink:href="#DejaVuSans-6f"/>
      <use x="158.597656" xlink:href="#DejaVuSans-62"/>
      <use x="222.074219" xlink:href="#DejaVuSans-61"/>
      <use x="283.353516" xlink:href="#DejaVuSans-62"/>
      <use x="346.830078" xlink:href="#DejaVuSans-69"/>
      <use x="374.613281" xlink:href="#DejaVuSans-6c"/>
      <use x="402.396484" xlink:href="#DejaVuSans-69"/>
      <use x="430.179688" xlink:href="#DejaVuSans-74"/>
      <use x="469.388672" xlink:href="#DejaVuSans-79"/>
      <use x="528.568359" xlink:href="#DejaVuSans-20"/>
      <use x="560.355469" xlink:href="#DejaVuSans-64"/>
      <use x="623.832031" xlink:href="#DejaVuSans-65"/>
      <use x="685.355469" xlink:href="#DejaVuSans-6e"/>
      <use x="748.734375" xlink:href="#DejaVuSans-73"/>
      <use x="800.833984" xlink:href="#DejaVuSans-69"/>
      <use x="828.617188" xlink:href="#DejaVuSans-74"/>
      <use x="867.826172" xlink:href="#DejaVuSans-79"/>
     </g>
    </g>
   </g>
   <g id="line2d_12">
    <path clip-path="url(#p6a7c32d310)" d="M 60.013977 273.312 
L 384.668523 46.843451 
L 384.668523 46.843451 
" style="fill:none;stroke:#ff7f0e;stroke-linecap:square;stroke-width:1.5;"/>
   </g>
   <g id="patch_203">
    <path d="M 43.78125 273.312 
L 43.78125 7.2 
" style="fill:none;stroke:#000000;stroke-linecap:square;stroke-linejoin:miter;stroke-width:0.8;"/>
   </g>
   <g id="patch_204">
    <path d="M 400.90125 273.312 
L 400.90125 7.2 
" style="fill:none;stroke:#000000;stroke-linecap:square;stroke-linejoin:miter;stroke-width:0.8;"/>
   </g>
   <g id="patch_205">
    <path d="M 43.78125 273.312 
L 400.90125 273.312 
" style="fill:none;stroke:#000000;stroke-linecap:square;stroke-linejoin:miter;stroke-width:0.8;"/>
   </g>
   <g id="patch_206">
    <path d="M 43.78125 7.2 
L 400.90125 7.2 
" style="fill:none;stroke:#000000;stroke-linecap:square;stroke-linejoin:miter;stroke-width:0.8;"/>
   </g>
  </g>
 </g>
 <defs>
  <clipPath id="p6a7c32d310">
   <rect height="266.112" width="357.12" x="43.78125" y="7.2"/>
  </clipPath>
 </defs>
</svg>
